<svg width="498" height="359" viewBox="0 0 498 359" fill="none" xmlns="http://www.w3.org/2000/svg">
<g id="undraw_team_collaboration_re_ow29 1" clip-path="url(#clip0_0_1)">
<g id="Group7">
<path id="Vector" d="M18.0618 38.1056C40.8503 37.5764 63.6412 37.5003 86.4345 37.8775C109.225 38.2569 132.007 39.0915 154.782 40.3813C167.562 41.1052 180.336 41.9723 193.106 42.9827C194.132 43.0638 194.128 40.9321 193.106 40.8513C170.354 39.0532 147.585 37.7078 124.8 36.815C102.018 35.9247 79.229 35.4895 56.4338 35.5097C43.6424 35.5211 30.8518 35.6759 18.0618 35.9742C17.036 35.998 17.0328 38.1295 18.0618 38.1056Z" fill="#E6E6E6"/>
<path id="Vector_2" d="M176.876 24.741L186.84 23.7505C187.858 23.6493 187.867 21.5171 186.84 21.6191L176.876 22.6095C175.858 22.7107 175.849 24.843 176.876 24.741Z" fill="#E6E6E6"/>
<path id="Vector_3" d="M176.876 37.5295L186.84 36.539C187.858 36.4378 187.867 34.3056 186.84 34.4076L176.876 35.3981C175.858 35.4993 175.849 37.6315 176.876 37.5295Z" fill="#E6E6E6"/>
<path id="Vector_4" d="M176.126 31.6893L190.294 33.4083C191.316 33.5323 191.31 31.4001 190.294 31.2768L176.126 29.5579C175.104 29.4338 175.11 31.566 176.126 31.6893Z" fill="#E6E6E6"/>
<path id="Vector_5" d="M23.9591 21.8745C23.2661 21.8688 22.5872 22.1356 22.007 22.6417C21.4269 23.1477 20.971 23.8707 20.6964 24.7204C20.3891 25.552 20.2943 26.4951 20.4264 27.4055C20.5584 28.3159 20.9101 29.1435 21.4277 29.7618C21.9142 30.3146 22.4977 30.6936 23.1237 30.8635C23.7497 31.0333 24.3977 30.9884 25.0072 30.733C25.6305 30.4422 26.171 29.9006 26.5543 29.1827C26.9376 28.4647 27.1449 27.6058 27.1475 26.724C27.1754 25.7457 26.9769 24.7798 26.5792 23.9574C26.1815 23.1351 25.6038 22.4963 24.9246 22.1279C24.7206 22.0539 24.5029 22.0906 24.319 22.23C24.1352 22.3695 24 22.6003 23.9431 22.8723C23.8927 23.1445 23.9225 23.4322 24.0261 23.6761C24.1298 23.9199 24.2995 24.1014 24.5004 24.1832C24.6395 24.255 24.3733 24.0919 24.5032 24.1864C24.5566 24.2253 24.611 24.2604 24.6634 24.3018C24.708 24.3371 24.7507 24.3757 24.794 24.4135C24.943 24.5433 24.7213 24.3182 24.8165 24.4349C24.8991 24.5361 24.9809 24.6349 25.0559 24.7466C25.0843 24.7888 25.1955 24.9062 25.1091 24.8241C25.043 24.7613 25.0836 24.7761 25.1091 24.8265C25.1284 24.8648 25.1488 24.902 25.1679 24.9405C25.2301 25.0663 25.2867 25.1968 25.3373 25.3315C25.349 25.3627 25.3597 25.3946 25.3717 25.4256C25.394 25.4837 25.4264 25.499 25.3739 25.4262C25.3237 25.3566 25.3556 25.3614 25.3736 25.4283C25.3854 25.4723 25.3983 25.5158 25.4098 25.5599C25.4472 25.7037 25.4786 25.8501 25.5038 25.9985C25.5155 26.0671 25.5249 26.1361 25.535 26.2051C25.5706 26.4499 25.5298 26.053 25.5384 26.2348C25.5456 26.3865 25.554 26.5367 25.552 26.6891C25.5511 26.7588 25.5488 26.8285 25.5452 26.898C25.5434 26.9327 25.5405 26.9674 25.5388 27.0021C25.5305 27.1693 25.5302 26.9409 25.5477 26.9253C25.5113 27.0673 25.4871 27.2144 25.4756 27.3637C25.4613 27.4299 25.4444 27.4948 25.4285 27.5603C25.3729 27.7889 25.4806 27.4356 25.4214 27.5919C25.3727 27.7262 25.3183 27.8566 25.2584 27.9825C25.2324 28.0352 25.1344 28.1543 25.2145 28.0714C25.3015 27.9815 25.1689 28.1364 25.1406 28.1762C25.1043 28.2274 25.0666 28.2768 25.0275 28.3245C25.0024 28.3571 24.976 28.3878 24.9483 28.4163C24.9432 28.4129 25.0816 28.2929 25.007 28.3564C24.9122 28.4372 24.8224 28.5236 24.7225 28.5939C24.7109 28.6021 24.5831 28.6811 24.5837 28.6839C24.5782 28.6552 24.7479 28.6041 24.6314 28.6544C24.6069 28.665 24.5829 28.6777 24.5585 28.6887C24.4525 28.7364 24.3442 28.7749 24.2344 28.804C24.2092 28.8107 24.1827 28.8141 24.1579 28.8226C24.0754 28.8511 24.2367 28.8059 24.2416 28.8097C24.1806 28.8062 24.1195 28.8134 24.06 28.8311C23.9468 28.8398 23.8333 28.8398 23.72 28.8311C23.6938 28.8291 23.6677 28.8256 23.6415 28.8236C23.5807 28.8188 23.5361 28.7603 23.617 28.8239C23.6794 28.8729 23.6743 28.8371 23.6189 28.8235C23.5931 28.8171 23.5671 28.8117 23.5412 28.8052C23.4292 28.7772 23.3183 28.7409 23.2093 28.6966C23.1506 28.6727 23.0931 28.645 23.0352 28.6179C23.01 28.6082 22.9854 28.5955 22.9618 28.5802C22.9614 28.5714 23.111 28.6756 23.032 28.6188C22.9323 28.5471 22.8293 28.4869 22.7319 28.4085C22.68 28.3667 22.6301 28.3212 22.5796 28.2764C22.5574 28.2585 22.5363 28.2383 22.5165 28.216C22.5181 28.207 22.6402 28.358 22.5761 28.2765C22.4951 28.1733 22.4084 28.081 22.3317 27.9712C22.3141 27.9461 22.2975 27.9198 22.28 27.8946L22.2631 27.8688C22.2199 27.7982 22.219 27.7985 22.2607 27.8698C22.303 27.8864 22.3011 27.9484 22.2609 27.8679C22.2466 27.8392 22.2314 27.8114 22.2172 27.7827C22.1524 27.6593 22.0971 27.5275 22.0522 27.3893C22.0561 27.3853 22.1214 27.6457 22.0715 27.4492C22.062 27.412 22.0514 27.3755 22.0422 27.3383C22.0239 27.2644 22.0077 27.1898 21.9938 27.1143C21.98 27.0395 21.9729 26.9624 21.959 26.8879C21.9356 26.7624 21.9727 26.987 21.9685 26.9814C21.9552 26.9638 21.9608 26.855 21.9598 26.8289C21.9535 26.6617 21.9677 26.4994 21.9699 26.3332C21.9717 26.2044 21.962 26.4335 21.96 26.4268C21.9604 26.3882 21.9656 26.35 21.9751 26.3136C21.9895 26.226 22.003 26.1384 22.0207 26.0517C22.0409 25.9524 22.0642 25.8544 22.0906 25.7575C22.1005 25.7213 22.1125 25.6856 22.1216 25.6491C22.1552 25.5153 22.0551 25.8107 22.1103 25.69C22.1862 25.524 22.2428 25.3443 22.3234 25.1804C22.3425 25.1415 22.4586 24.925 22.397 25.0343C22.3356 25.1432 22.4601 24.9368 22.4836 24.9018C22.5815 24.7562 22.6966 24.6367 22.798 24.4973C22.8579 24.4148 22.7561 24.5379 22.7501 24.5437C22.7815 24.5137 22.8122 24.4827 22.844 24.4534C22.8994 24.4024 22.9561 24.3542 23.0143 24.3088C23.0797 24.2575 23.1537 24.2193 23.2172 24.1651C23.2921 24.1011 23.1599 24.1932 23.1575 24.1952C23.1917 24.1725 23.2275 24.1542 23.2644 24.1407C23.3262 24.1115 23.5949 23.9566 23.6513 24.0051C23.6487 24.0029 23.4472 24.0267 23.6101 24.0127C23.6486 24.0094 23.687 24.0044 23.7255 24.0023C23.8035 23.998 23.8812 24.0006 23.9591 24.006C24.1703 24.0041 24.3725 23.8913 24.5218 23.6918C24.6712 23.4923 24.7557 23.2223 24.7571 22.9403C24.7525 22.6595 24.667 22.3919 24.5183 22.1934C24.3697 21.9948 24.1693 21.8806 23.9591 21.8745Z" fill="#E6E6E6"/>
<path id="Vector_6" d="M35.1306 21.8745C34.4376 21.8688 33.7587 22.1356 33.1785 22.6417C32.5984 23.1477 32.1425 23.8707 31.8679 24.7204C31.5606 25.552 31.4658 26.4951 31.5979 27.4055C31.7299 28.3159 32.0816 29.1435 32.5992 29.7618C33.0857 30.3146 33.6692 30.6936 34.2952 30.8635C34.9212 31.0333 35.5692 30.9884 36.1787 30.733C36.802 30.4422 37.3425 29.9006 37.7258 29.1827C38.1091 28.4647 38.3164 27.6058 38.319 26.724C38.3469 25.7457 38.1484 24.7798 37.7507 23.9574C37.353 23.1351 36.7753 22.4963 36.0962 22.1279C35.8921 22.0539 35.6744 22.0906 35.4905 22.23C35.3067 22.3695 35.1715 22.6003 35.1146 22.8723C35.0642 23.1445 35.094 23.4322 35.1976 23.6761C35.3013 23.9199 35.4711 24.1014 35.6719 24.1832C35.811 24.255 35.5449 24.0919 35.6747 24.1864C35.7281 24.2253 35.7825 24.2604 35.8349 24.3018C35.8795 24.3371 35.9222 24.3757 35.9655 24.4135C36.1145 24.5433 35.8928 24.3182 35.988 24.4349C36.0706 24.5361 36.1524 24.6349 36.2274 24.7466C36.2558 24.7888 36.367 24.9062 36.2806 24.8241C36.2145 24.7613 36.2551 24.7761 36.2806 24.8265C36.2999 24.8648 36.3203 24.902 36.3394 24.9405C36.4016 25.0663 36.4582 25.1968 36.5088 25.3315C36.5205 25.3627 36.5312 25.3946 36.5432 25.4256C36.5655 25.4837 36.5979 25.499 36.5454 25.4262C36.4952 25.3566 36.5271 25.3614 36.5451 25.4283C36.5569 25.4723 36.5698 25.5158 36.5813 25.5599C36.6187 25.7037 36.6501 25.8501 36.6754 25.9985C36.6871 26.0671 36.6965 26.1361 36.7065 26.2051C36.7421 26.4499 36.7013 26.053 36.7099 26.2348C36.7171 26.3865 36.7255 26.5367 36.7235 26.6891C36.7226 26.7588 36.7204 26.8285 36.7167 26.898C36.7149 26.9327 36.712 26.9674 36.7103 27.0021C36.702 27.1693 36.7017 26.9409 36.7193 26.9253C36.6828 27.0673 36.6586 27.2144 36.6471 27.3637C36.6329 27.4299 36.6159 27.4948 36.6 27.5603C36.5445 27.7889 36.6521 27.4356 36.5929 27.5919C36.5442 27.7262 36.4898 27.8566 36.4299 27.9825C36.4039 28.0352 36.3059 28.1543 36.386 28.0714C36.473 27.9815 36.3404 28.1364 36.3121 28.1762C36.2758 28.2274 36.2381 28.2768 36.199 28.3245C36.1739 28.3571 36.1475 28.3878 36.1198 28.4163C36.1147 28.4129 36.2531 28.2929 36.1785 28.3564C36.0837 28.4372 35.994 28.5236 35.894 28.5939C35.8824 28.6021 35.7546 28.6811 35.7552 28.6839C35.7497 28.6552 35.9194 28.6041 35.8029 28.6544C35.7784 28.665 35.7544 28.6777 35.73 28.6887C35.624 28.7364 35.5157 28.7749 35.4059 28.804C35.3808 28.8107 35.3542 28.8141 35.3294 28.8226C35.2469 28.8511 35.4082 28.8059 35.4131 28.8097C35.3521 28.8062 35.2911 28.8134 35.2315 28.8311C35.1183 28.8398 35.0048 28.8398 34.8916 28.8311C34.8654 28.8291 34.8392 28.8256 34.813 28.8236C34.7522 28.8188 34.7076 28.7603 34.7885 28.8239C34.8509 28.8729 34.8458 28.8371 34.7905 28.8235C34.7646 28.8171 34.7386 28.8117 34.7127 28.8052C34.6007 28.7772 34.4899 28.7409 34.3808 28.6966C34.3221 28.6727 34.2646 28.645 34.2067 28.6179C34.1815 28.6082 34.1569 28.5955 34.1333 28.5802C34.1329 28.5714 34.2825 28.6756 34.2035 28.6188C34.1039 28.5471 34.0008 28.4869 33.9034 28.4085C33.8515 28.3667 33.8016 28.3212 33.7511 28.2764C33.7289 28.2585 33.7078 28.2383 33.688 28.216C33.6896 28.207 33.8117 28.358 33.7476 28.2765C33.6666 28.1733 33.5799 28.081 33.5032 27.9712C33.4856 27.9461 33.469 27.9198 33.4515 27.8946L33.4346 27.8688C33.3914 27.7982 33.3906 27.7985 33.4322 27.8698C33.4745 27.8864 33.4726 27.9484 33.4324 27.8679C33.4181 27.8392 33.4029 27.8114 33.3887 27.7827C33.3239 27.6593 33.2686 27.5275 33.2237 27.3893C33.2276 27.3853 33.2929 27.6457 33.243 27.4492C33.2335 27.412 33.2229 27.3755 33.2137 27.3383C33.1954 27.2644 33.1792 27.1898 33.1653 27.1143C33.1515 27.0395 33.1444 26.9624 33.1305 26.8879C33.1071 26.7624 33.1442 26.987 33.14 26.9814C33.1267 26.9638 33.1323 26.855 33.1313 26.8289C33.125 26.6617 33.1392 26.4994 33.1415 26.3332C33.1432 26.2044 33.1335 26.4335 33.1315 26.4268C33.132 26.3882 33.1371 26.35 33.1466 26.3136C33.1611 26.226 33.1745 26.1384 33.1922 26.0517C33.2124 25.9524 33.2357 25.8544 33.2621 25.7575C33.272 25.7213 33.284 25.6856 33.2931 25.6491C33.3267 25.5153 33.2267 25.8107 33.2818 25.69C33.3578 25.524 33.4143 25.3443 33.4949 25.1804C33.514 25.1415 33.6301 24.925 33.5685 25.0343C33.5071 25.1432 33.6316 24.9368 33.6551 24.9018C33.753 24.7562 33.8681 24.6367 33.9695 24.4973C34.0295 24.4148 33.9276 24.5379 33.9216 24.5437C33.953 24.5137 33.9837 24.4827 34.0155 24.4534C34.0709 24.4024 34.1276 24.3542 34.1858 24.3088C34.2512 24.2575 34.3252 24.2193 34.3887 24.1651C34.4637 24.1011 34.3314 24.1932 34.329 24.1952C34.3632 24.1725 34.399 24.1542 34.4359 24.1407C34.4977 24.1115 34.7664 23.9566 34.8228 24.0051C34.8202 24.0029 34.6187 24.0267 34.7816 24.0127C34.8201 24.0094 34.8585 24.0044 34.897 24.0023C34.975 23.998 35.0527 24.0006 35.1306 24.006C35.3418 24.0041 35.544 23.8913 35.6933 23.6918C35.8427 23.4923 35.9272 23.2223 35.9286 22.9403C35.924 22.6595 35.8385 22.3919 35.6898 22.1934C35.5412 21.9948 35.3408 21.8806 35.1306 21.8745Z" fill="#E6E6E6"/>
<path id="Vector_7" d="M46.3021 21.8745C45.6091 21.8688 44.9302 22.1356 44.3501 22.6417C43.7699 23.1477 43.314 23.8707 43.0394 24.7204C42.7322 25.552 42.6373 26.4951 42.7694 27.4055C42.9014 28.3159 43.2531 29.1435 43.7707 29.7618C44.2572 30.3146 44.8407 30.6936 45.4667 30.8635C46.0927 31.0333 46.7407 30.9884 47.3502 30.733C47.9735 30.4422 48.514 29.9006 48.8973 29.1827C49.2806 28.4647 49.4879 27.6058 49.4906 26.724C49.5184 25.7457 49.32 24.7798 48.9222 23.9574C48.5245 23.1351 47.9468 22.4963 47.2677 22.1279C47.0636 22.0539 46.8459 22.0906 46.6621 22.23C46.4782 22.3695 46.343 22.6003 46.2861 22.8723C46.2357 23.1445 46.2655 23.4322 46.3692 23.6761C46.4728 23.9199 46.6426 24.1014 46.8434 24.1832C46.9825 24.255 46.7164 24.0919 46.8462 24.1864C46.8996 24.2253 46.954 24.2604 47.0064 24.3018C47.051 24.3371 47.0937 24.3757 47.137 24.4135C47.286 24.5433 47.0643 24.3182 47.1595 24.4349C47.2421 24.5361 47.3239 24.6349 47.3989 24.7466C47.4273 24.7888 47.5385 24.9062 47.4521 24.8241C47.386 24.7613 47.4266 24.7761 47.4521 24.8265C47.4714 24.8648 47.4918 24.902 47.5109 24.9405C47.5732 25.0663 47.6297 25.1968 47.6803 25.3315C47.692 25.3627 47.7028 25.3946 47.7147 25.4256C47.737 25.4837 47.7694 25.499 47.7169 25.4262C47.6667 25.3566 47.6986 25.3614 47.7166 25.4283C47.7284 25.4723 47.7413 25.5158 47.7528 25.5599C47.7902 25.7037 47.8216 25.8501 47.8469 25.9985C47.8586 26.0671 47.868 26.1361 47.878 26.2051C47.9137 26.4499 47.8728 26.053 47.8814 26.2348C47.8886 26.3865 47.897 26.5367 47.895 26.6891C47.8941 26.7588 47.8919 26.8285 47.8882 26.898C47.8864 26.9327 47.8835 26.9674 47.8818 27.0021C47.8735 27.1693 47.8732 26.9409 47.8908 26.9253C47.8543 27.0673 47.8301 27.2144 47.8187 27.3637C47.8044 27.4299 47.7874 27.4948 47.7715 27.5603C47.716 27.7889 47.8236 27.4356 47.7644 27.5919C47.7157 27.7262 47.6613 27.8566 47.6014 27.9825C47.5754 28.0352 47.4774 28.1543 47.5575 28.0714C47.6445 27.9815 47.5119 28.1364 47.4836 28.1762C47.4473 28.2274 47.4096 28.2768 47.3705 28.3245C47.3454 28.3571 47.319 28.3878 47.2913 28.4163C47.2863 28.4129 47.4246 28.2929 47.3501 28.3564C47.2552 28.4372 47.1655 28.5236 47.0655 28.5939C47.0539 28.6021 46.9262 28.6811 46.9267 28.6839C46.9212 28.6552 47.0909 28.6041 46.9744 28.6544C46.9499 28.665 46.9259 28.6777 46.9016 28.6887C46.7955 28.7364 46.6872 28.7749 46.5774 28.804C46.5523 28.8107 46.5257 28.8141 46.5009 28.8226C46.4184 28.8511 46.5797 28.8059 46.5846 28.8097C46.5236 28.8062 46.4626 28.8134 46.403 28.8311C46.2898 28.8398 46.1763 28.8398 46.0631 28.8311C46.0369 28.8291 46.0107 28.8256 45.9845 28.8236C45.9237 28.8188 45.8791 28.7603 45.96 28.8239C46.0225 28.8729 46.0173 28.8371 45.962 28.8235C45.9361 28.8171 45.9101 28.8117 45.8842 28.8052C45.7722 28.7772 45.6614 28.7409 45.5523 28.6966C45.4936 28.6727 45.4361 28.645 45.3782 28.6179C45.353 28.6082 45.3284 28.5955 45.3048 28.5802C45.3044 28.5714 45.454 28.6756 45.375 28.6188C45.2754 28.5471 45.1723 28.4869 45.075 28.4085C45.023 28.3667 44.9731 28.3212 44.9226 28.2764C44.9004 28.2585 44.8793 28.2383 44.8595 28.216C44.8611 28.207 44.9832 28.358 44.9191 28.2765C44.8381 28.1733 44.7514 28.081 44.6747 27.9712C44.6571 27.9461 44.6405 27.9198 44.6231 27.8946L44.6061 27.8688C44.5629 27.7982 44.5621 27.7985 44.6037 27.8698C44.646 27.8864 44.6441 27.9484 44.604 27.8679C44.5897 27.8392 44.5745 27.8114 44.5602 27.7827C44.4954 27.6593 44.4401 27.5275 44.3952 27.3893C44.3991 27.3853 44.4644 27.6457 44.4145 27.4492C44.4051 27.412 44.3945 27.3755 44.3852 27.3383C44.3669 27.2644 44.3507 27.1898 44.3368 27.1143C44.323 27.0395 44.3159 26.9624 44.302 26.8879C44.2786 26.7624 44.3157 26.987 44.3115 26.9814C44.2982 26.9638 44.3039 26.855 44.3029 26.8289C44.2965 26.6617 44.3107 26.4994 44.313 26.3332C44.3147 26.2044 44.305 26.4335 44.303 26.4268C44.3035 26.3882 44.3086 26.35 44.3181 26.3136C44.3326 26.226 44.346 26.1384 44.3637 26.0517C44.3839 25.9524 44.4072 25.8544 44.4336 25.7575C44.4435 25.7213 44.4555 25.6856 44.4647 25.6491C44.4982 25.5153 44.3982 25.8107 44.4533 25.69C44.5293 25.524 44.5858 25.3443 44.6664 25.1804C44.6855 25.1415 44.8016 24.925 44.74 25.0343C44.6786 25.1432 44.8031 24.9368 44.8266 24.9018C44.9245 24.7562 45.0396 24.6367 45.141 24.4973C45.201 24.4148 45.0991 24.5379 45.0931 24.5437C45.1245 24.5137 45.1552 24.4827 45.187 24.4534C45.2424 24.4024 45.2992 24.3542 45.3573 24.3088C45.4227 24.2575 45.4968 24.2193 45.5602 24.1651C45.6352 24.1011 45.5029 24.1932 45.5005 24.1952C45.5347 24.1725 45.5705 24.1542 45.6074 24.1407C45.6692 24.1115 45.9379 23.9566 45.9943 24.0051C45.9917 24.0029 45.7902 24.0267 45.9531 24.0127C45.9916 24.0094 46.03 24.0044 46.0685 24.0023C46.1465 23.998 46.2242 24.0006 46.3021 24.006C46.5133 24.0041 46.7155 23.8913 46.8648 23.6918C47.0142 23.4923 47.0987 23.2223 47.1001 22.9403C47.0956 22.6595 47.01 22.3919 46.8614 22.1934C46.7127 21.9948 46.5123 21.8806 46.3021 21.8745Z" fill="#E6E6E6"/>
</g>
<path id="Vector_8" d="M207.69 257.902H11.9726C9.49775 257.899 7.12503 256.584 5.37501 254.247C3.62499 251.91 2.6406 248.741 2.63782 245.436V12.467C2.64059 9.16165 3.62497 5.99279 5.37498 3.65558C7.12499 1.31837 9.49772 0.00370643 11.9726 0H207.69C210.165 0.00370643 212.537 1.31837 214.287 3.65558C216.037 5.99279 217.022 9.16165 217.024 12.467V245.436C217.022 248.741 216.037 251.91 214.287 254.247C212.537 256.584 210.164 257.899 207.69 257.902ZM11.9726 1.42095C9.77982 1.42428 7.67754 2.58912 6.127 4.65993C4.57646 6.73074 3.70427 9.5384 3.70177 12.467V245.436C3.70432 248.364 4.57654 251.172 6.12708 253.243C7.67762 255.313 9.77986 256.478 11.9726 256.481H207.69C209.882 256.478 211.985 255.313 213.535 253.243C215.086 251.172 215.958 248.364 215.96 245.436V12.467C215.958 9.5384 215.086 6.73074 213.535 4.65993C211.985 2.58913 209.882 1.42428 207.69 1.42095H11.9726Z" fill="#E6E6E6"/>
<path id="Vector_9" d="M46.3704 156.783L46.7959 123.222C46.8133 121.85 45.2174 121.85 45.2 123.222L44.7744 156.783C44.757 158.155 46.353 158.156 46.3704 156.783Z" fill="#E6E6E6"/>
<path id="Vector_10" d="M144.72 141.874L144.524 156.235C144.505 157.607 146.101 157.607 146.12 156.235C146.351 139.274 146.944 139.827 147.009 135.04C147.027 133.668 145.432 133.667 145.413 135.04C145.413 135.04 144.951 124.913 144.72 141.874Z" fill="#E6E6E6"/>
<path id="Vector_11" d="M45.8413 118.582L45.8388 118.584L45.8438 118.582H45.8413Z" fill="#E6E6E6"/>
<path id="Vector_12" d="M48.6081 116.621C48.2392 115.749 47.6508 115.079 46.9473 114.732C46.2438 114.384 45.4708 114.38 44.7655 114.722C44.415 114.893 44.0936 115.156 43.8205 115.495C43.5474 115.835 43.328 116.244 43.1754 116.699C43.1449 116.796 43.127 116.898 43.1021 116.997C43.0675 117.071 43.0259 117.139 42.9949 117.217C42.6642 118.097 42.5736 119.104 42.7388 120.064C42.9041 121.024 43.3148 121.876 43.9001 122.475C44.4855 123.074 45.209 123.382 45.9459 123.345C46.6829 123.308 47.3872 122.93 47.9375 122.274C48.5158 121.576 48.8977 120.634 49.0198 119.606C49.1418 118.577 48.9965 117.524 48.6081 116.621ZM46.6093 118.431C46.6159 118.485 46.6134 118.534 46.6093 118.431ZM46.4061 117.814C46.3993 117.804 46.3983 117.802 46.4061 117.814ZM45.5106 118.295C45.4987 118.271 45.4975 118.266 45.5106 118.295ZM45.7229 118.536C45.7734 118.558 45.7534 118.554 45.7229 118.536ZM45.8177 118.596L45.8387 118.583C45.8335 118.584 45.8284 118.582 45.8238 118.579L45.8244 118.579L45.8409 118.582L45.844 118.58L45.8345 118.577C45.8427 118.576 45.8434 118.578 45.844 118.58C45.9389 118.522 45.8749 118.55 45.8198 118.572L45.8161 118.571C45.7818 118.548 45.7448 118.532 45.7067 118.524C45.7032 118.522 45.699 118.52 45.6961 118.517C45.6655 118.488 45.5111 118.327 45.6544 118.496C45.6232 118.459 45.5924 118.423 45.5631 118.383C45.5458 118.359 45.5301 118.334 45.5162 118.306C45.4974 118.263 45.4792 118.22 45.4616 118.176L45.4589 118.152C45.4566 118.133 45.4548 118.125 45.4529 118.113C45.4538 118.101 45.4552 118.087 45.4567 118.075C45.4674 118.036 45.4742 117.996 45.4769 117.956L45.4831 117.945C45.506 117.902 45.5261 117.853 45.548 117.808C45.4323 118.043 45.5932 117.782 45.6052 117.749C45.6073 117.744 45.6037 117.747 45.6046 117.743C45.6092 117.739 45.6078 117.742 45.6135 117.737C45.6493 117.709 45.6833 117.678 45.7197 117.651C45.763 117.619 45.9338 117.554 45.7567 117.622C45.7969 117.606 45.8355 117.587 45.8762 117.573C45.8835 117.57 45.9432 117.559 45.9753 117.551C46.0035 117.55 46.0308 117.549 46.0337 117.549C46.047 117.549 46.0602 117.552 46.0735 117.552C46.0441 117.558 46.1743 117.595 46.213 117.603C46.2186 117.609 46.2214 117.613 46.229 117.62C46.2617 117.652 46.3015 117.681 46.336 117.71C46.1817 117.577 46.338 117.721 46.3675 117.76C46.3851 117.784 46.4014 117.809 46.418 117.834C46.4332 117.857 46.4469 117.882 46.4591 117.909C46.4844 117.971 46.5113 118.034 46.5379 118.094L46.5452 118.11C46.5451 118.112 46.545 118.114 46.545 118.116C46.5589 118.215 46.5793 118.312 46.6061 118.406C46.6074 118.414 46.6084 118.422 46.6091 118.43C46.6116 118.484 46.615 118.538 46.6151 118.592L46.6147 118.603C46.4918 118.518 46.3555 118.473 46.2169 118.471C46.0783 118.47 45.9415 118.513 45.8177 118.596Z" fill="#E6E6E6"/>
<path id="Vector_13" d="M45.846 118.58C45.8487 118.582 45.8455 118.582 45.8455 118.582L45.846 118.58Z" fill="#E6E6E6"/>
<path id="Vector_14" d="M45.8463 118.582L45.8431 118.582C45.8472 118.583 45.8463 118.582 45.8463 118.582Z" fill="#E6E6E6"/>
<path id="Vector_15" d="M45.8442 118.58L45.8462 118.581L45.8442 118.58Z" fill="#E6E6E6"/>
<path id="Vector_16" d="M79.8878 98.6885L79.8853 98.6905L79.8903 98.6885H79.8878Z" fill="#E6E6E6"/>
<path id="Vector_17" d="M79.8928 98.6882L79.8896 98.6889C79.8937 98.6895 79.8928 98.6882 79.8928 98.6882Z" fill="#E6E6E6"/>
<path id="Vector_18" d="M79.8906 98.6864L79.8926 98.6874L79.8906 98.6864Z" fill="#E6E6E6"/>
<path id="Vector_19" d="M79.8925 98.6872C79.8952 98.6885 79.892 98.6887 79.892 98.6887L79.8925 98.6872Z" fill="#E6E6E6"/>
<path id="Vector_20" d="M112.873 108.633L112.875 108.634L112.873 108.633Z" fill="#E6E6E6"/>
<path id="Vector_21" d="M112.87 108.635L112.868 108.637L112.873 108.635H112.87Z" fill="#E6E6E6"/>
<path id="Vector_22" d="M112.875 108.635L112.872 108.636C112.876 108.636 112.875 108.635 112.875 108.635Z" fill="#E6E6E6"/>
<path id="Vector_23" d="M112.875 108.634C112.878 108.635 112.875 108.635 112.875 108.635L112.875 108.634Z" fill="#E6E6E6"/>
<path id="Vector_24" d="M149.152 131.541C148.783 130.669 148.194 129.999 147.491 129.652C146.787 129.304 146.014 129.3 145.309 129.642C144.959 129.813 144.637 130.076 144.364 130.415C144.091 130.755 143.872 131.164 143.719 131.619C143.688 131.716 143.671 131.818 143.646 131.917C143.611 131.991 143.57 132.059 143.539 132.137C143.208 133.017 143.117 134.024 143.282 134.984C143.448 135.944 143.858 136.796 144.444 137.395C145.029 137.994 145.753 138.302 146.49 138.265C147.226 138.228 147.931 137.85 148.481 137.194C149.059 136.496 149.441 135.554 149.563 134.526C149.685 133.497 149.54 132.444 149.152 131.541ZM147.153 133.351C147.159 133.405 147.157 133.454 147.153 133.351ZM146.95 132.734C146.943 132.724 146.942 132.722 146.95 132.734ZM146.054 133.215C146.042 133.191 146.041 133.186 146.054 133.215ZM146.266 133.455C146.317 133.478 146.297 133.474 146.266 133.455ZM146.361 133.516L146.382 133.503C146.377 133.504 146.372 133.502 146.367 133.499L146.368 133.499L146.384 133.502L146.388 133.5L146.378 133.497C146.386 133.496 146.387 133.498 146.388 133.5C146.482 133.442 146.418 133.47 146.363 133.492L146.36 133.491C146.325 133.468 146.288 133.452 146.25 133.444C146.247 133.442 146.243 133.44 146.24 133.437C146.209 133.408 146.055 133.247 146.198 133.416C146.167 133.379 146.136 133.343 146.107 133.303C146.089 133.279 146.074 133.254 146.06 133.226C146.041 133.183 146.023 133.14 146.005 133.096L146.002 133.072C146 133.053 145.998 133.044 145.996 133.033C145.997 133.02 145.999 133.007 146 132.995C146.011 132.956 146.018 132.916 146.02 132.876L146.027 132.865C146.05 132.822 146.07 132.773 146.092 132.728C145.976 132.963 146.137 132.702 146.149 132.669C146.151 132.664 146.147 132.667 146.148 132.663C146.153 132.659 146.151 132.662 146.157 132.657C146.193 132.629 146.227 132.598 146.263 132.571C146.307 132.539 146.477 132.474 146.3 132.542C146.34 132.526 146.379 132.507 146.42 132.493C146.427 132.49 146.487 132.479 146.519 132.471C146.547 132.47 146.574 132.469 146.577 132.469C146.591 132.469 146.604 132.472 146.617 132.472C146.588 132.478 146.718 132.515 146.757 132.523C146.762 132.529 146.765 132.533 146.773 132.54C146.805 132.572 146.845 132.6 146.88 132.63C146.725 132.497 146.882 132.641 146.911 132.68C146.929 132.704 146.945 132.729 146.961 132.754C146.977 132.777 146.99 132.802 147.003 132.829C147.028 132.891 147.055 132.954 147.081 133.014L147.089 133.03C147.089 133.032 147.089 133.034 147.089 133.036C147.102 133.135 147.123 133.232 147.15 133.326C147.151 133.334 147.152 133.342 147.153 133.35C147.155 133.404 147.159 133.458 147.159 133.512L147.158 133.523C147.035 133.438 146.899 133.393 146.76 133.391C146.622 133.39 146.485 133.433 146.361 133.516Z" fill="#E6E6E6"/>
<path id="Vector_25" d="M146.385 86.6104L146.382 86.6124L146.387 86.6104H146.385Z" fill="#E6E6E6"/>
<path id="Vector_26" d="M146.39 86.6102L146.387 86.6109C146.391 86.6115 146.39 86.6102 146.39 86.6102Z" fill="#E6E6E6"/>
<path id="Vector_27" d="M146.39 86.6091C146.392 86.6104 146.389 86.6106 146.389 86.6106L146.39 86.6091Z" fill="#E6E6E6"/>
<path id="Vector_28" d="M146.388 86.6083L146.39 86.6093L146.388 86.6083Z" fill="#E6E6E6"/>
<g id="Group5">
<path id="Vector_29" d="M11.6484 158.511L80.4751 158.232L148.951 157.953L187.578 157.796C187.785 157.787 187.981 157.67 188.124 157.472C188.268 157.273 188.349 157.007 188.349 156.731C188.349 156.454 188.268 156.189 188.124 155.99C187.981 155.791 187.785 155.675 187.578 155.665L118.751 155.945L50.2756 156.223L11.6484 156.38C11.4415 156.389 11.2455 156.506 11.1017 156.705C10.9579 156.903 10.8776 157.169 10.8776 157.445C10.8776 157.722 10.9579 157.987 11.1017 158.186C11.2455 158.385 11.4415 158.502 11.6484 158.511Z" fill="#E6E6E6"/>
<path id="Vector_30" d="M79.2653 157.146L80.3024 114.962L80.5987 102.91C80.6325 101.538 79.0365 101.539 79.0028 102.91L77.9657 145.094L77.6694 157.146C77.6356 158.518 79.2316 158.517 79.2653 157.146Z" fill="#E6E6E6"/>
<path id="Vector_31" d="M112.071 82.9133C111.446 97.8546 110.288 141.925 109.663 156.867C109.605 158.237 111.201 158.233 111.259 156.867C111.884 141.925 113.042 97.8546 113.667 82.9133C113.725 81.5428 112.129 81.5472 112.071 82.9133Z" fill="#E6E6E6"/>
<path id="Vector_32" d="M176.698 104.148L176.878 144.438L176.93 155.974C176.937 156.251 177.024 156.512 177.173 156.704C177.322 156.896 177.521 157.004 177.728 157.004C177.935 157.004 178.134 156.896 178.283 156.704C178.432 156.512 178.519 156.251 178.526 155.974L178.345 115.684L178.294 104.148C178.287 103.871 178.199 103.61 178.051 103.417C177.902 103.225 177.703 103.118 177.496 103.118C177.289 103.118 177.09 103.225 176.941 103.417C176.792 103.61 176.705 103.871 176.698 104.148Z" fill="#E6E6E6"/>
<path id="Vector_33" d="M11.7767 157.312C10.4557 152.464 13.4336 147.801 16.4934 145.705C20.1592 143.195 24.3764 142.626 28.0811 140.206C33.6042 136.598 37.6271 130.123 41.2067 123.642C44.891 116.971 48.2622 109.812 52.9438 104.269C55.4108 101.284 58.3244 99.0316 61.492 97.6625C65.483 95.9991 69.7157 95.885 73.8396 96.5554C82.3611 97.9406 90.2607 102.641 98.4829 105.629C106.235 108.445 114.776 110.029 122.385 105.649C126.251 103.424 129.412 99.6915 132.807 96.4617C136.094 93.303 139.768 90.936 143.664 89.4673C151.302 86.6307 159.644 87.3881 166.755 92.1835C173.291 96.5347 178.467 103.83 181.368 112.782C184.739 123.537 184.3 135.557 183.199 146.877C182.914 149.804 182.576 152.72 182.233 155.635C182.076 156.977 183.613 157.555 183.772 156.202C185.144 144.528 186.511 132.485 184.804 120.738C183.329 110.48 179.106 101.292 172.925 94.8931C166.718 88.4764 159.001 85.2241 151.161 85.7199C147.052 85.9745 143.007 87.176 139.205 89.2711C135.258 91.4514 131.916 94.6831 128.521 98.0836C125.031 101.58 121.433 104.472 117.099 105.612C112.896 106.718 108.523 106.304 104.338 105.259C95.7026 103.104 87.6536 98.165 79.0917 95.6342C71.1591 93.2894 62.599 93.0551 55.4956 99.0401C50.0315 103.644 46.1704 110.791 42.465 117.693C38.792 124.534 35.0726 131.849 29.7017 136.523C26.4254 139.373 22.7425 140.425 19.0775 142.028C15.4029 143.636 11.8754 146.347 10.3771 151.375C9.73137 153.446 9.68176 155.762 10.2378 157.879C10.5863 159.158 12.1291 158.605 11.7767 157.312Z" fill="#E6E6E6"/>
<path id="Vector_34" d="M82.6546 96.7279C82.2857 95.8556 81.6973 95.1861 80.9938 94.8383C80.2903 94.4906 79.5173 94.4871 78.812 94.8286C78.4615 94.9995 78.1401 95.2625 77.867 95.6022C77.5939 95.9418 77.3745 96.3511 77.2219 96.806C77.1914 96.9026 77.1735 97.0043 77.1486 97.1033C77.114 97.178 77.0724 97.2454 77.0415 97.3235C76.7107 98.2038 76.6201 99.2105 76.7854 100.17C76.9506 101.13 77.3613 101.983 77.9466 102.582C78.532 103.181 79.2555 103.489 79.9925 103.452C80.7294 103.415 81.4337 103.036 81.984 102.381C82.5623 101.682 82.9443 100.741 83.0663 99.7124C83.1883 98.684 83.043 97.6308 82.6546 96.7279ZM80.6558 98.538C80.6624 98.5918 80.66 98.6412 80.6558 98.538ZM80.4526 97.921C80.4458 97.9103 80.4448 97.909 80.4526 97.921ZM79.5571 98.4019C79.5452 98.3772 79.544 98.3731 79.5571 98.4019ZM79.7694 98.6422C79.8199 98.6652 79.7999 98.6604 79.7694 98.6422ZM79.8642 98.7025L79.8852 98.6897C79.88 98.6903 79.8748 98.689 79.8703 98.6858L79.8709 98.6856L79.8874 98.6883L79.8904 98.6865L79.8809 98.6835C79.8892 98.6831 79.8899 98.6848 79.8904 98.6865C79.9854 98.6284 79.9213 98.6562 79.8663 98.679L79.8626 98.6779C79.8282 98.6546 79.7913 98.6388 79.7532 98.631C79.7497 98.6283 79.7455 98.6264 79.7426 98.6236C79.712 98.5946 79.5576 98.4335 79.7008 98.6024C79.6697 98.5656 79.6389 98.5295 79.6095 98.4898C79.5922 98.4661 79.5766 98.4404 79.5627 98.413C79.5439 98.3699 79.5257 98.3265 79.508 98.2826L79.5054 98.259C79.503 98.2394 79.5013 98.2312 79.4993 98.2194C79.5003 98.2072 79.5017 98.1941 79.5031 98.1814C79.5138 98.1431 79.5207 98.1031 79.5234 98.0623L79.5296 98.0519C79.5525 98.0092 79.5726 97.9594 79.5944 97.915C79.4788 98.1496 79.6397 97.8891 79.6517 97.8561C79.6537 97.8504 79.6502 97.8535 79.651 97.8496C79.6557 97.8461 79.6543 97.8485 79.6599 97.8441C79.6958 97.8159 79.7297 97.7845 79.7661 97.7576C79.8095 97.7255 79.9802 97.6607 79.8032 97.7283C79.8434 97.713 79.882 97.6936 79.9226 97.6794C79.93 97.6769 79.9896 97.6657 80.0217 97.658C80.0499 97.657 80.0773 97.6559 80.0802 97.656C80.0934 97.6562 80.1067 97.6583 80.1199 97.6591C80.0905 97.6644 80.2208 97.702 80.2595 97.7099C80.265 97.7158 80.2679 97.7195 80.2755 97.7269C80.3082 97.7589 80.348 97.7872 80.3825 97.817C80.2282 97.6838 80.3845 97.8276 80.414 97.867C80.4316 97.8905 80.4478 97.9156 80.4644 97.9404C80.4796 97.964 80.4934 97.9891 80.5055 98.0157C80.5308 98.0776 80.5578 98.1403 80.5843 98.2012L80.5917 98.2168C80.5916 98.2188 80.5915 98.2209 80.5915 98.2229C80.6053 98.3217 80.6258 98.4186 80.6526 98.5126C80.6539 98.5205 80.6549 98.5286 80.6556 98.5367C80.6581 98.5908 80.6615 98.6447 80.6616 98.6991L80.6612 98.7101C80.5383 98.6246 80.4019 98.5793 80.2634 98.5779C80.1248 98.5766 79.988 98.6193 79.8642 98.7025Z" fill="#E6E6E6"/>
<path id="Vector_35" d="M115.637 76.8346C115.268 75.9623 114.68 75.2928 113.976 74.945C113.273 74.5973 112.5 74.5938 111.795 74.9353C111.444 75.1062 111.123 75.3692 110.85 75.7089C110.576 76.0485 110.357 76.4578 110.204 76.9127C110.174 77.0093 110.156 77.111 110.131 77.21C110.097 77.2847 110.055 77.3521 110.024 77.4302C109.693 78.3105 109.603 79.3172 109.768 80.2771C109.933 81.2369 110.344 82.0898 110.929 82.6888C111.515 83.2877 112.238 83.5953 112.975 83.5586C113.712 83.5218 114.416 83.1429 114.967 82.4873C115.545 81.7891 115.927 80.8475 116.049 79.8191C116.171 78.7907 116.026 77.7375 115.637 76.8346ZM113.638 78.6447C113.645 78.6985 113.643 78.7479 113.638 78.6447ZM113.435 78.0277C113.428 78.017 113.427 78.0157 113.435 78.0277ZM112.54 78.5086C112.528 78.4839 112.527 78.4798 112.54 78.5086ZM112.752 78.7489C112.802 78.7719 112.782 78.7671 112.752 78.7489ZM112.847 78.8092L112.868 78.7964C112.863 78.797 112.857 78.7957 112.853 78.7925L112.853 78.7923L112.87 78.795L112.873 78.7932L112.863 78.7902C112.872 78.7898 112.872 78.7915 112.873 78.7932C112.968 78.7351 112.904 78.7629 112.849 78.7857L112.845 78.7846C112.811 78.7613 112.774 78.7455 112.736 78.7377C112.732 78.7351 112.728 78.7331 112.725 78.7303C112.695 78.7013 112.54 78.5402 112.683 78.7091C112.652 78.6723 112.621 78.6362 112.592 78.5965C112.575 78.5728 112.559 78.5471 112.545 78.5197C112.526 78.4766 112.508 78.4332 112.491 78.3894L112.488 78.3657C112.486 78.3461 112.484 78.3379 112.482 78.3261C112.483 78.3139 112.484 78.3008 112.486 78.2881C112.496 78.2498 112.503 78.2098 112.506 78.169L112.512 78.1586C112.535 78.1159 112.555 78.0661 112.577 78.0217C112.461 78.2563 112.622 77.9958 112.634 77.9628C112.636 77.9571 112.633 77.9602 112.634 77.9563C112.638 77.9528 112.637 77.9552 112.642 77.9508C112.678 77.9226 112.712 77.8912 112.749 77.8643C112.792 77.8322 112.963 77.7674 112.786 77.835C112.826 77.8197 112.865 77.8003 112.905 77.7861C112.913 77.7836 112.972 77.7724 113.004 77.7647C113.032 77.7637 113.06 77.7626 113.063 77.7627C113.076 77.7629 113.089 77.765 113.102 77.7658C113.073 77.7711 113.203 77.8087 113.242 77.8166C113.248 77.8225 113.25 77.8262 113.258 77.8336C113.291 77.8656 113.331 77.8939 113.365 77.9237C113.211 77.7905 113.367 77.9343 113.397 77.9737C113.414 77.9972 113.43 78.0223 113.447 78.0471C113.462 78.0707 113.476 78.0958 113.488 78.1224C113.513 78.1843 113.54 78.247 113.567 78.3079L113.574 78.3235C113.574 78.3255 113.574 78.3276 113.574 78.3296C113.588 78.4284 113.608 78.5253 113.635 78.6193C113.636 78.6272 113.637 78.6353 113.638 78.6434C113.641 78.6975 113.644 78.7514 113.644 78.8058L113.644 78.8168C113.521 78.7313 113.384 78.686 113.246 78.6846C113.107 78.6833 112.971 78.726 112.847 78.8092Z" fill="#E6E6E6"/>
<path id="Vector_36" d="M180.538 98.8594C180.169 97.987 179.581 97.3175 178.877 96.9698C178.174 96.622 177.401 96.6186 176.696 96.96C176.345 97.1309 176.024 97.394 175.751 97.7336C175.478 98.0732 175.258 98.4826 175.106 98.9374C175.075 99.034 175.057 99.1357 175.032 99.2347C174.998 99.3094 174.956 99.3768 174.925 99.4549C174.594 100.335 174.504 101.342 174.669 102.302C174.834 103.262 175.245 104.115 175.83 104.713C176.416 105.312 177.139 105.62 177.876 105.583C178.613 105.546 179.317 105.168 179.868 104.512C180.446 103.814 180.828 102.872 180.95 101.844C181.072 100.815 180.927 99.7622 180.538 98.8594ZM178.539 100.669C178.546 100.723 178.544 100.773 178.539 100.669ZM178.336 100.052C178.329 100.042 178.328 100.04 178.336 100.052ZM177.441 100.533C177.429 100.509 177.428 100.505 177.441 100.533ZM177.653 100.774C177.704 100.797 177.684 100.792 177.653 100.774ZM177.748 100.834L177.769 100.821C177.764 100.822 177.759 100.82 177.754 100.817L177.755 100.817L177.771 100.82L177.774 100.818L177.765 100.815C177.773 100.815 177.774 100.816 177.774 100.818C177.869 100.76 177.805 100.788 177.75 100.81L177.746 100.809C177.712 100.786 177.675 100.77 177.637 100.762C177.633 100.76 177.629 100.758 177.626 100.755C177.596 100.726 177.441 100.565 177.585 100.734C177.553 100.697 177.523 100.661 177.493 100.621C177.476 100.598 177.46 100.572 177.446 100.544C177.428 100.501 177.409 100.458 177.392 100.414L177.389 100.39C177.387 100.371 177.385 100.363 177.383 100.351C177.384 100.339 177.385 100.326 177.387 100.313C177.398 100.275 177.404 100.234 177.407 100.194L177.413 100.183C177.436 100.141 177.456 100.091 177.478 100.046C177.362 100.281 177.523 100.021 177.535 99.9875C177.537 99.9819 177.534 99.9849 177.535 99.981C177.539 99.9776 177.538 99.98 177.544 99.9755C177.579 99.9473 177.613 99.9159 177.65 99.889C177.693 99.8569 177.864 99.7921 177.687 99.8598C177.727 99.8444 177.766 99.825 177.806 99.8108C177.814 99.8083 177.873 99.7971 177.905 99.7894C177.934 99.7885 177.961 99.7873 177.964 99.7874C177.977 99.7876 177.99 99.7898 178.004 99.7905C177.974 99.7958 178.104 99.8334 178.143 99.8413C178.149 99.8472 178.152 99.8509 178.159 99.8584C178.192 99.8903 178.232 99.9186 178.266 99.9484C178.112 99.8152 178.268 99.959 178.298 99.9984C178.315 100.022 178.332 100.047 178.348 100.072C178.363 100.095 178.377 100.121 178.389 100.147C178.414 100.209 178.441 100.272 178.468 100.333L178.475 100.348C178.475 100.35 178.475 100.352 178.475 100.354C178.489 100.453 178.509 100.55 178.536 100.644C178.538 100.652 178.539 100.66 178.539 100.668C178.542 100.722 178.545 100.776 178.545 100.831L178.545 100.842C178.422 100.756 178.286 100.711 178.147 100.709C178.008 100.708 177.872 100.751 177.748 100.834Z" fill="#E6E6E6"/>
</g>
<path id="Vector_37" d="M177.772 100.82L177.769 100.822L177.774 100.82H177.772Z" fill="#E6E6E6"/>
<path id="Vector_38" d="M177.774 100.818L177.776 100.819L177.774 100.818Z" fill="#E6E6E6"/>
<path id="Vector_39" d="M177.776 100.819C177.779 100.82 177.776 100.82 177.776 100.82L177.776 100.819Z" fill="#E6E6E6"/>
<path id="Vector_40" d="M177.777 100.82L177.773 100.82C177.777 100.821 177.777 100.82 177.777 100.82Z" fill="#E6E6E6"/>
<path id="Vector_41" d="M200.605 206.925L209.926 185.982L216.816 190.328C216.816 190.328 204.944 210.13 204.566 210.699C204.728 211.662 204.668 212.667 204.392 213.583C204.117 214.498 203.64 215.28 203.025 215.826C202.409 216.372 201.685 216.655 200.946 216.638C200.207 216.622 199.49 216.306 198.889 215.733C198.287 215.161 197.831 214.357 197.578 213.43C197.326 212.503 197.291 211.495 197.477 210.54C197.663 209.586 198.062 208.729 198.62 208.083C199.179 207.438 199.871 207.034 200.605 206.925Z" fill="#FFB6B6"/>
<path id="Vector_42" d="M204.482 158.275L219.584 168.798C220.528 169.706 221.319 170.867 221.908 172.207C222.497 173.546 222.869 175.036 223.003 176.579C223.136 178.122 223.026 179.685 222.681 181.169C222.336 182.652 221.763 184.024 220.999 185.195L210.588 201.144L206.053 192.936L209.549 183.174L202.78 180.791L204.482 158.275Z" fill="#6C63FF"/>
<g id="Group6">
<path id="Vector_43" d="M169.17 133.38L144.435 135.216C144.296 135.226 144.159 135.165 144.052 135.044C143.946 134.923 143.878 134.753 143.863 134.567C143.847 134.382 143.886 134.196 143.971 134.048C144.055 133.899 144.179 133.8 144.317 133.77L169.599 128.275L169.17 133.38Z" fill="#3F3D56"/>
<path id="Vector_44" d="M161.447 133.722L159.746 157.98L152.127 157.997C152.127 157.997 156.498 133.311 156.657 132.579C156.202 131.802 155.934 130.859 155.889 129.875C155.844 128.89 156.024 127.91 156.405 127.065C156.786 126.22 157.35 125.549 158.022 125.141C158.695 124.733 159.444 124.608 160.172 124.781C160.899 124.955 161.569 125.419 162.095 126.113C162.62 126.806 162.975 127.696 163.113 128.665C163.252 129.634 163.166 130.637 162.869 131.54C162.571 132.442 162.076 133.203 161.447 133.722Z" fill="#FFB6B6"/>
<path id="Vector_45" d="M176.613 183.329L159.077 179.033C151.693 177.848 148.662 171.358 149.994 165.029L154.282 144.659L161.014 149.479L160.988 160.3L170.411 158.58L176.613 183.329Z" fill="#6C63FF"/>
</g>
<path id="Vector_46" d="M169.435 350.969H164.613L162.319 326.129H169.436L169.435 350.969Z" fill="#FFB6B6"/>
<path id="Vector_47" d="M169.605 357.687L154.777 357.686V357.436C154.777 355.392 155.385 353.431 156.468 351.986C157.55 350.54 159.018 349.728 160.549 349.728L163.257 346.984L168.311 349.729L169.605 349.729L169.605 357.687Z" fill="#2F2E41"/>
<path id="Vector_48" d="M203.553 350.969H208.375L210.669 326.129H203.552L203.553 350.969Z" fill="#FFB6B6"/>
<path id="Vector_49" d="M203.384 357.687L218.212 357.686V357.436C218.211 355.392 217.603 353.431 216.521 351.986C215.439 350.54 213.971 349.728 212.44 349.728L209.731 346.984L204.678 349.729L203.383 349.729L203.384 357.687Z" fill="#2F2E41"/>
<path id="Vector_50" d="M162.107 307.876C162.179 306.458 162.745 298.62 162.745 298.62L164.101 281.996L166.491 237.932L168.622 226.349L179.169 231.837L187.727 226.357L197.899 230.7L205.819 234.667C205.819 234.667 205.833 236.365 205.894 238.416C205.975 241.102 206.117 244.394 206.457 245.249C207.023 246.762 206.88 254.881 206.88 254.881C206.88 254.881 207.443 271.4 208.152 273.212C208.86 275.023 209.003 278.795 208.789 279.551C208.576 280.307 209.498 300.146 209.498 300.146C209.498 300.146 211.865 335.253 210.38 340.546C208.895 345.84 203.283 342.372 203.283 342.372C203.283 342.372 203.554 340.959 201.927 340.294C200.299 339.628 195.342 289.849 195.342 289.849C195.342 289.849 194.42 279.642 193.572 276.716C192.725 273.791 191.945 265.572 191.945 265.572C191.945 265.572 186.71 251.969 186.642 248.944C186.642 248.944 185.957 246.114 185.309 249.23C184.662 252.345 182.753 259.808 182.753 259.808L180.891 268.973L178.701 282.667L177.284 294.196C177.284 294.196 175.161 309.497 174.822 310.158C174.483 310.819 174.822 324.798 174.822 324.798C174.822 324.798 173.181 336.703 170.862 338.781C168.543 340.86 162.398 338.814 162.398 338.814C162.398 338.814 162.036 309.293 162.107 307.876Z" fill="#2F2E41"/>
<path id="Vector_51" d="M169.992 189.08L168.644 212.397L166.619 215.195C166.437 215.448 166.294 215.747 166.2 216.074C166.106 216.402 166.063 216.751 166.072 217.102C166.082 217.453 166.144 217.797 166.256 218.115C166.367 218.433 166.526 218.717 166.721 218.951L165.606 221.506L165.211 229.555C165.098 230.182 165.091 230.834 165.188 231.464C165.286 232.095 165.487 232.689 165.777 233.204C166.066 233.719 166.437 234.143 166.864 234.444C167.29 234.746 167.761 234.918 168.243 234.948L203.157 237.138C203.637 237.169 204.115 237.058 204.558 236.814C205.002 236.57 205.4 236.199 205.724 235.727C206.049 235.256 206.291 234.694 206.436 234.083C206.58 233.473 206.622 232.827 206.559 232.192L203.59 202.342V200.11L202.261 195.8L202.944 181.36L204.533 158.441L195.296 155.255L190.288 150.653L181.588 150.838L176.309 156.628L169.27 158.101L163.947 159.514L163.269 161.482L164.625 161.088L169.541 186.695L169.992 189.08Z" fill="#6C63FF"/>
<path id="Vector_52" d="M185.744 147.529C191.404 147.529 195.993 141.4 195.993 133.841C195.993 126.281 191.404 120.153 185.744 120.153C180.083 120.153 175.495 126.281 175.495 133.841C175.495 141.4 180.083 147.529 185.744 147.529Z" fill="#FFB6B6"/>
<path id="Vector_53" d="M183.273 146.646L190.678 146.141C191.626 146.076 192.662 145.965 193.352 145.093C193.723 144.554 194.009 143.92 194.192 143.23C194.876 141.107 195.561 138.983 196.228 136.849C197.151 133.898 198.057 130.782 197.821 127.599C197.766 126.146 197.31 124.771 196.54 123.74C196.147 123.244 195.643 122.935 195.105 122.862C194.567 122.789 194.026 122.957 193.566 123.338C193.452 122.331 193.168 121.372 192.736 120.534C192.303 119.695 191.734 118.999 191.07 118.498C189.73 117.509 188.2 117.076 186.675 117.253C184.462 117.444 182.349 118.556 180.634 120.433C180.151 121.028 179.636 121.573 179.093 122.064C178.819 122.309 178.511 122.476 178.188 122.556C177.864 122.636 177.532 122.627 177.212 122.529C176.894 122.416 176.618 122.153 176.434 121.788C176.25 121.424 176.171 120.983 176.212 120.548C175.691 121.068 175.333 121.83 175.209 122.684C175.085 123.538 175.204 124.422 175.542 125.166C175.158 125.381 174.738 125.459 174.324 125.394C173.911 125.328 173.516 125.121 173.18 124.792C172.82 125.031 172.501 125.368 172.244 125.78C171.987 126.193 171.797 126.673 171.687 127.19C171.576 127.706 171.548 128.248 171.604 128.779C171.659 129.311 171.797 129.822 172.009 130.278C172.221 130.735 172.502 131.127 172.834 131.43C173.165 131.734 173.541 131.941 173.936 132.039C174.332 132.137 174.738 132.124 175.129 132C175.521 131.876 175.888 131.645 176.209 131.32C176.658 132.161 176.491 133.304 176.432 134.334C176.374 135.364 176.58 136.644 177.324 136.928C178.329 137.313 179.143 135.506 180.189 135.525C180.447 135.553 180.695 135.666 180.913 135.853C181.13 136.04 181.31 136.296 181.436 136.598C181.682 137.205 181.851 137.863 181.935 138.544L183.273 146.589" fill="#2F2E41"/>
<path id="Vector_54" d="M472 269.722C472 267.603 471.467 265.883 470.813 265.879H292.417C291.76 265.883 291.23 267.603 291.227 269.722V356.975C291.227 357.172 291.172 357.362 291.073 357.508C290.974 357.653 290.838 357.745 290.691 357.764C290.212 357.825 289.734 357.882 289.255 357.935C289.243 357.935 289.231 357.939 289.219 357.939C288.959 357.971 288.698 357.995 288.438 358.022H288.435C288.301 357.691 288.168 357.357 288.037 357.021C287.993 356.907 287.97 356.781 287.97 356.653V264.736C287.97 264.151 287.988 263.561 288.017 262.98C288.059 262.182 288.134 261.387 288.239 260.599C288.74 256.926 289.871 254.438 291.156 254.43H472.071C472.259 254.432 472.444 254.485 472.616 254.585C472.868 254.734 473.097 254.947 473.288 255.213C473.548 255.574 473.77 255.98 473.948 256.419C474.686 258.382 475.11 260.527 475.195 262.719C475.195 262.743 475.198 262.766 475.198 262.79C475.239 263.431 475.26 264.083 475.257 264.736L475.299 273.21L475.325 278.264L475.405 294.122L475.435 299.753L475.565 357.567C475.565 357.777 475.503 357.978 475.392 358.127C475.281 358.275 475.13 358.358 474.973 358.358H472.592C472.435 358.358 472.285 358.275 472.174 358.127C472.062 357.978 472 357.777 472 357.567V269.722Z" fill="#E6E6E6"/>
<path id="Vector_55" d="M423.524 214.777H404.302C404.03 214.777 403.769 214.922 403.577 215.179C403.385 215.436 403.277 215.785 403.278 216.148V256.702H424.551V216.148C424.551 215.968 424.525 215.789 424.473 215.623C424.421 215.456 424.346 215.305 424.25 215.178C424.155 215.051 424.042 214.95 423.917 214.881C423.793 214.812 423.659 214.776 423.524 214.777ZM413.978 237.819C413.377 237.815 412.801 237.495 412.376 236.927C411.951 236.359 411.711 235.591 411.708 234.788V230.11C411.708 229.306 411.947 228.535 412.373 227.967C412.798 227.398 413.376 227.079 413.978 227.079C414.58 227.079 415.157 227.398 415.583 227.967C416.008 228.535 416.248 229.306 416.248 230.11V234.788C416.245 235.591 416.005 236.359 415.58 236.927C415.155 237.495 414.579 237.815 413.978 237.819Z" fill="#CCCCCC"/>
<path id="Vector_56" d="M403.212 255.405V259.318C403.212 259.521 403.273 259.715 403.38 259.858C403.487 260.002 403.633 260.082 403.785 260.083H424.044C424.196 260.082 424.341 260.001 424.448 259.858C424.556 259.714 424.616 259.52 424.617 259.318V255.405H403.212Z" fill="#3F3D56"/>
<path id="Vector_57" d="M455.355 151.486H373.186C372.481 151.488 371.804 151.863 371.305 152.53C370.805 153.196 370.524 154.1 370.523 155.043V229.095C370.524 230.038 370.805 230.943 371.304 231.609C371.803 232.276 372.48 232.651 373.186 232.652H455.355C456.061 232.651 456.738 232.276 457.237 231.609C457.737 230.943 458.017 230.038 458.018 229.095V155.043C458.017 154.1 457.736 153.196 457.237 152.53C456.738 151.863 456.061 151.488 455.355 151.486Z" fill="#E6E6E6"/>
<path id="Vector_58" d="M454.669 154.055H373.873C373.495 154.056 373.133 154.258 372.866 154.615C372.599 154.972 372.449 155.457 372.449 155.961V228.178C372.449 228.682 372.6 229.166 372.867 229.522C373.134 229.879 373.495 230.079 373.873 230.08H454.669C455.047 230.079 455.408 229.879 455.675 229.522C455.942 229.166 456.093 228.682 456.093 228.178V155.961C456.093 155.457 455.943 154.972 455.676 154.615C455.409 154.258 455.047 154.056 454.669 154.055Z" fill="white"/>
<path id="Vector_59" d="M438.931 261.444H390.862C390.731 261.444 390.601 261.405 390.482 261.33C390.363 261.254 390.258 261.144 390.175 261.007C390.093 260.871 390.033 260.712 390.003 260.541C389.972 260.37 389.97 260.192 389.997 260.02L390.743 255.289C390.785 255.024 390.894 254.787 391.051 254.616C391.209 254.446 391.405 254.352 391.608 254.351H438.186C438.388 254.352 438.585 254.446 438.742 254.616C438.899 254.787 439.008 255.024 439.051 255.289L439.797 260.02C439.824 260.192 439.822 260.37 439.791 260.541C439.76 260.712 439.701 260.871 439.618 261.007C439.535 261.144 439.43 261.254 439.312 261.33C439.193 261.405 439.063 261.444 438.931 261.444Z" fill="#CCCCCC"/>
<path id="Vector_60" d="M393.17 255.203H392.209C392.065 255.203 391.949 255.359 391.949 255.55V256.043C391.949 256.234 392.065 256.39 392.209 256.39H393.17C393.313 256.39 393.43 256.234 393.43 256.043V255.55C393.43 255.359 393.313 255.203 393.17 255.203Z" fill="#E6E6E6"/>
<path id="Vector_61" d="M396.131 255.203H395.17C395.026 255.203 394.91 255.359 394.91 255.55V256.043C394.91 256.234 395.026 256.39 395.17 256.39H396.131C396.274 256.39 396.391 256.234 396.391 256.043V255.55C396.391 255.359 396.274 255.203 396.131 255.203Z" fill="#E6E6E6"/>
<path id="Vector_62" d="M399.092 255.203H398.131C397.987 255.203 397.871 255.359 397.871 255.55V256.043C397.871 256.234 397.987 256.39 398.131 256.39H399.092C399.235 256.39 399.352 256.234 399.352 256.043V255.55C399.352 255.359 399.235 255.203 399.092 255.203Z" fill="#E6E6E6"/>
<path id="Vector_63" d="M402.053 255.203H401.092C400.948 255.203 400.832 255.359 400.832 255.55V256.043C400.832 256.234 400.948 256.39 401.092 256.39H402.053C402.196 256.39 402.313 256.234 402.313 256.043V255.55C402.313 255.359 402.196 255.203 402.053 255.203Z" fill="#E6E6E6"/>
<path id="Vector_64" d="M405.014 255.203H404.053C403.909 255.203 403.793 255.359 403.793 255.55V256.043C403.793 256.234 403.909 256.39 404.053 256.39H405.014C405.157 256.39 405.274 256.234 405.274 256.043V255.55C405.274 255.359 405.157 255.203 405.014 255.203Z" fill="#E6E6E6"/>
<path id="Vector_65" d="M407.975 255.203H407.014C406.87 255.203 406.754 255.359 406.754 255.55V256.043C406.754 256.234 406.87 256.39 407.014 256.39H407.975C408.118 256.39 408.234 256.234 408.234 256.043V255.55C408.234 255.359 408.118 255.203 407.975 255.203Z" fill="#E6E6E6"/>
<path id="Vector_66" d="M410.936 255.203H409.975C409.831 255.203 409.715 255.359 409.715 255.55V256.043C409.715 256.234 409.831 256.39 409.975 256.39H410.936C411.079 256.39 411.195 256.234 411.195 256.043V255.55C411.195 255.359 411.079 255.203 410.936 255.203Z" fill="#E6E6E6"/>
<path id="Vector_67" d="M413.897 255.203H412.936C412.792 255.203 412.676 255.359 412.676 255.55V256.043C412.676 256.234 412.792 256.39 412.936 256.39H413.897C414.04 256.39 414.156 256.234 414.156 256.043V255.55C414.156 255.359 414.04 255.203 413.897 255.203Z" fill="#E6E6E6"/>
<path id="Vector_68" d="M416.858 255.203H415.897C415.753 255.203 415.637 255.359 415.637 255.55V256.043C415.637 256.234 415.753 256.39 415.897 256.39H416.858C417.001 256.39 417.117 256.234 417.117 256.043V255.55C417.117 255.359 417.001 255.203 416.858 255.203Z" fill="#E6E6E6"/>
<path id="Vector_69" d="M419.819 255.203H418.858C418.714 255.203 418.598 255.359 418.598 255.55V256.043C418.598 256.234 418.714 256.39 418.858 256.39H419.819C419.962 256.39 420.078 256.234 420.078 256.043V255.55C420.078 255.359 419.962 255.203 419.819 255.203Z" fill="#E6E6E6"/>
<path id="Vector_70" d="M422.78 255.203H421.819C421.675 255.203 421.559 255.359 421.559 255.55V256.043C421.559 256.234 421.675 256.39 421.819 256.39H422.78C422.923 256.39 423.039 256.234 423.039 256.043V255.55C423.039 255.359 422.923 255.203 422.78 255.203Z" fill="#E6E6E6"/>
<path id="Vector_71" d="M425.741 255.203H424.78C424.636 255.203 424.52 255.359 424.52 255.55V256.043C424.52 256.234 424.636 256.39 424.78 256.39H425.741C425.884 256.39 426 256.234 426 256.043V255.55C426 255.359 425.884 255.203 425.741 255.203Z" fill="#E6E6E6"/>
<path id="Vector_72" d="M428.702 255.203H427.741C427.597 255.203 427.481 255.359 427.481 255.55V256.043C427.481 256.234 427.597 256.39 427.741 256.39H428.702C428.845 256.39 428.961 256.234 428.961 256.043V255.55C428.961 255.359 428.845 255.203 428.702 255.203Z" fill="#E6E6E6"/>
<path id="Vector_73" d="M431.663 255.203H430.701C430.558 255.203 430.442 255.359 430.442 255.55V256.043C430.442 256.234 430.558 256.39 430.701 256.39H431.663C431.806 256.39 431.922 256.234 431.922 256.043V255.55C431.922 255.359 431.806 255.203 431.663 255.203Z" fill="#E6E6E6"/>
<path id="Vector_74" d="M434.624 255.203H433.662C433.519 255.203 433.403 255.359 433.403 255.55V256.043C433.403 256.234 433.519 256.39 433.662 256.39H434.624C434.767 256.39 434.883 256.234 434.883 256.043V255.55C434.883 255.359 434.767 255.203 434.624 255.203Z" fill="#E6E6E6"/>
<path id="Vector_75" d="M437.585 255.203H436.623C436.48 255.203 436.364 255.359 436.364 255.55V256.043C436.364 256.234 436.48 256.39 436.623 256.39H437.585C437.728 256.39 437.844 256.234 437.844 256.043V255.55C437.844 255.359 437.728 255.203 437.585 255.203Z" fill="#E6E6E6"/>
<path id="Vector_76" d="M393.135 257.181H392.174C392.03 257.181 391.914 257.336 391.914 257.527V258.02C391.914 258.212 392.03 258.367 392.174 258.367H393.135C393.278 258.367 393.395 258.212 393.395 258.02V257.527C393.395 257.336 393.278 257.181 393.135 257.181Z" fill="#E6E6E6"/>
<path id="Vector_77" d="M396.096 257.181H395.135C394.991 257.181 394.875 257.336 394.875 257.527V258.02C394.875 258.212 394.991 258.367 395.135 258.367H396.096C396.239 258.367 396.356 258.212 396.356 258.02V257.527C396.356 257.336 396.239 257.181 396.096 257.181Z" fill="#E6E6E6"/>
<path id="Vector_78" d="M399.057 257.181H398.096C397.952 257.181 397.836 257.336 397.836 257.527V258.02C397.836 258.212 397.952 258.367 398.096 258.367H399.057C399.2 258.367 399.317 258.212 399.317 258.02V257.527C399.317 257.336 399.2 257.181 399.057 257.181Z" fill="#E6E6E6"/>
<path id="Vector_79" d="M402.018 257.181H401.057C400.913 257.181 400.797 257.336 400.797 257.527V258.02C400.797 258.212 400.913 258.367 401.057 258.367H402.018C402.161 258.367 402.278 258.212 402.278 258.02V257.527C402.278 257.336 402.161 257.181 402.018 257.181Z" fill="#E6E6E6"/>
<path id="Vector_80" d="M404.979 257.181H404.018C403.874 257.181 403.758 257.336 403.758 257.527V258.02C403.758 258.212 403.874 258.367 404.018 258.367H404.979C405.122 258.367 405.239 258.212 405.239 258.02V257.527C405.239 257.336 405.122 257.181 404.979 257.181Z" fill="#E6E6E6"/>
<path id="Vector_81" d="M407.94 257.181H406.979C406.835 257.181 406.719 257.336 406.719 257.527V258.02C406.719 258.212 406.835 258.367 406.979 258.367H407.94C408.083 258.367 408.2 258.212 408.2 258.02V257.527C408.2 257.336 408.083 257.181 407.94 257.181Z" fill="#E6E6E6"/>
<path id="Vector_82" d="M410.901 257.181H409.94C409.796 257.181 409.68 257.336 409.68 257.527V258.02C409.68 258.212 409.796 258.367 409.94 258.367H410.901C411.044 258.367 411.16 258.212 411.16 258.02V257.527C411.16 257.336 411.044 257.181 410.901 257.181Z" fill="#E6E6E6"/>
<path id="Vector_83" d="M413.862 257.181H412.901C412.757 257.181 412.641 257.336 412.641 257.527V258.02C412.641 258.212 412.757 258.367 412.901 258.367H413.862C414.005 258.367 414.121 258.212 414.121 258.02V257.527C414.121 257.336 414.005 257.181 413.862 257.181Z" fill="#E6E6E6"/>
<path id="Vector_84" d="M416.823 257.181H415.862C415.718 257.181 415.602 257.336 415.602 257.527V258.02C415.602 258.212 415.718 258.367 415.862 258.367H416.823C416.966 258.367 417.082 258.212 417.082 258.02V257.527C417.082 257.336 416.966 257.181 416.823 257.181Z" fill="#E6E6E6"/>
<path id="Vector_85" d="M419.784 257.181H418.823C418.679 257.181 418.563 257.336 418.563 257.527V258.02C418.563 258.212 418.679 258.367 418.823 258.367H419.784C419.927 258.367 420.043 258.212 420.043 258.02V257.527C420.043 257.336 419.927 257.181 419.784 257.181Z" fill="#E6E6E6"/>
<path id="Vector_86" d="M422.745 257.181H421.784C421.64 257.181 421.524 257.336 421.524 257.527V258.02C421.524 258.212 421.64 258.367 421.784 258.367H422.745C422.888 258.367 423.004 258.212 423.004 258.02V257.527C423.004 257.336 422.888 257.181 422.745 257.181Z" fill="#E6E6E6"/>
<path id="Vector_87" d="M425.706 257.181H424.745C424.601 257.181 424.485 257.336 424.485 257.527V258.02C424.485 258.212 424.601 258.367 424.745 258.367H425.706C425.849 258.367 425.965 258.212 425.965 258.02V257.527C425.965 257.336 425.849 257.181 425.706 257.181Z" fill="#E6E6E6"/>
<path id="Vector_88" d="M428.667 257.181H427.706C427.562 257.181 427.446 257.336 427.446 257.527V258.02C427.446 258.212 427.562 258.367 427.706 258.367H428.667C428.81 258.367 428.926 258.212 428.926 258.02V257.527C428.926 257.336 428.81 257.181 428.667 257.181Z" fill="#E6E6E6"/>
<path id="Vector_89" d="M431.628 257.181H430.667C430.523 257.181 430.407 257.336 430.407 257.527V258.02C430.407 258.212 430.523 258.367 430.667 258.367H431.628C431.771 258.367 431.887 258.212 431.887 258.02V257.527C431.887 257.336 431.771 257.181 431.628 257.181Z" fill="#E6E6E6"/>
<path id="Vector_90" d="M434.589 257.181H433.627C433.484 257.181 433.368 257.336 433.368 257.527V258.02C433.368 258.212 433.484 258.367 433.627 258.367H434.589C434.732 258.367 434.848 258.212 434.848 258.02V257.527C434.848 257.336 434.732 257.181 434.589 257.181Z" fill="#E6E6E6"/>
<path id="Vector_91" d="M437.55 257.181H436.588C436.445 257.181 436.329 257.336 436.329 257.527V258.02C436.329 258.212 436.445 258.367 436.588 258.367H437.55C437.693 258.367 437.809 258.212 437.809 258.02V257.527C437.809 257.336 437.693 257.181 437.55 257.181Z" fill="#E6E6E6"/>
<path id="Vector_92" d="M417.711 259.553H406.387C406.243 259.553 406.127 259.708 406.127 259.9V260.393C406.127 260.584 406.243 260.74 406.387 260.74H417.711C417.854 260.74 417.971 260.584 417.971 260.393V259.9C417.971 259.708 417.854 259.553 417.711 259.553Z" fill="#E6E6E6"/>
<path id="Vector_93" d="M450.608 164.005H375.007C374.928 164.003 374.854 163.96 374.799 163.884C374.744 163.809 374.713 163.709 374.713 163.604C374.713 163.499 374.744 163.398 374.799 163.323C374.854 163.248 374.928 163.204 375.007 163.202H450.608C450.686 163.204 450.761 163.248 450.816 163.323C450.871 163.398 450.902 163.499 450.902 163.604C450.902 163.709 450.871 163.809 450.816 163.884C450.761 163.96 450.686 164.003 450.608 164.005Z" fill="#CACACA"/>
<path id="Vector_94" d="M380.153 161.152C381.126 161.152 381.915 160.075 381.915 158.747C381.915 157.418 381.126 156.341 380.153 156.341C379.18 156.341 378.391 157.418 378.391 158.747C378.391 160.075 379.18 161.152 380.153 161.152Z" fill="#CCCCCC"/>
<path id="Vector_95" d="M386.24 161.152C387.213 161.152 388.002 160.075 388.002 158.747C388.002 157.418 387.213 156.341 386.24 156.341C385.267 156.341 384.478 157.418 384.478 158.747C384.478 160.075 385.267 161.152 386.24 161.152Z" fill="#CCCCCC"/>
<path id="Vector_96" d="M392.326 161.152C393.299 161.152 394.088 160.075 394.088 158.747C394.088 157.418 393.299 156.341 392.326 156.341C391.353 156.341 390.564 157.418 390.564 158.747C390.564 160.075 391.353 161.152 392.326 161.152Z" fill="#CCCCCC"/>
<path id="Vector_97" d="M446.943 156.937H442.619C442.534 156.94 442.452 156.987 442.392 157.068C442.332 157.15 442.298 157.26 442.298 157.374C442.298 157.489 442.332 157.599 442.392 157.681C442.452 157.762 442.534 157.809 442.619 157.812H446.943C447.029 157.809 447.11 157.762 447.17 157.681C447.23 157.599 447.264 157.489 447.264 157.374C447.264 157.26 447.23 157.15 447.17 157.068C447.11 156.987 447.029 156.94 446.943 156.937Z" fill="#CCCCCC"/>
<path id="Vector_98" d="M446.943 158.578H442.619C442.534 158.581 442.452 158.628 442.392 158.71C442.332 158.791 442.298 158.901 442.298 159.016C442.298 159.13 442.332 159.24 442.392 159.322C442.452 159.404 442.534 159.451 442.619 159.453H446.943C447.029 159.451 447.11 159.404 447.17 159.322C447.23 159.24 447.264 159.13 447.264 159.016C447.264 158.901 447.23 158.791 447.17 158.71C447.11 158.628 447.029 158.581 446.943 158.578Z" fill="#CCCCCC"/>
<path id="Vector_99" d="M446.943 160.217H442.619C442.534 160.22 442.452 160.267 442.392 160.349C442.332 160.43 442.298 160.54 442.298 160.655C442.298 160.769 442.332 160.879 442.392 160.961C442.452 161.043 442.534 161.09 442.619 161.092H446.943C447.029 161.09 447.11 161.043 447.17 160.961C447.23 160.879 447.264 160.769 447.264 160.655C447.264 160.54 447.23 160.43 447.17 160.349C447.11 160.267 447.029 160.22 446.943 160.217Z" fill="#CCCCCC"/>
<path id="Vector_100" d="M418.911 185.881H409.465C408.755 185.881 408.18 186.649 408.18 187.596C408.18 188.544 408.755 189.312 409.465 189.312H418.911C419.621 189.312 420.196 188.544 420.196 187.596C420.196 186.649 419.621 185.881 418.911 185.881Z" fill="#6C63FF"/>
<path id="Vector_101" d="M425.014 192.744H403.362C402.652 192.744 402.077 193.512 402.077 194.46C402.077 195.407 402.652 196.176 403.362 196.176H425.014C425.723 196.176 426.299 195.407 426.299 194.46C426.299 193.512 425.723 192.744 425.014 192.744Z" fill="#E6E6E6"/>
<path id="Vector_102" d="M425.014 199.607H403.362C402.652 199.607 402.077 200.376 402.077 201.323C402.077 202.271 402.652 203.039 403.362 203.039H425.014C425.723 203.039 426.299 202.271 426.299 201.323C426.299 200.376 425.723 199.607 425.014 199.607Z" fill="#E6E6E6"/>
<path id="Vector_103" d="M279.142 306.532L274.787 303.75L280.769 279.44L287.197 283.545L279.142 306.532Z" fill="#FFB6B6"/>
<path id="Vector_104" d="M308.338 302.613C308.021 302.878 307.705 303.138 307.385 303.399C306.748 303.92 306.105 304.433 305.462 304.937C305.139 305.189 304.813 305.441 304.49 305.689V305.701L304.471 305.706L304.464 305.71L303.972 305.872L303.265 303.377L302.938 302.228L302.478 300.601L301.633 297.623L297.187 281.944L304.1 279.667L304.359 281.081H304.362L304.49 281.782L306.905 294.863L307.398 297.537L307.414 297.619L307.711 299.216L307.967 300.601L308.252 302.147L308.338 302.613Z" fill="#FFB6B6"/>
<path id="Vector_105" d="M349.575 247.552C349.137 248.492 348.689 249.428 348.238 250.355C347.4 252.081 346.539 253.781 345.656 255.456C345.656 255.46 345.653 255.46 345.65 255.464C345.135 256.102 344.566 256.657 343.954 257.118C343.929 257.143 343.9 257.16 343.874 257.182C343.424 257.514 342.945 257.771 342.448 257.947C342.269 258.006 342.086 258.066 341.907 258.126C341.261 258.331 340.621 258.506 339.985 258.66C338.852 258.929 337.733 259.121 336.62 259.241C336.53 259.254 336.44 259.262 336.351 259.271C331.773 259.719 327.317 258.997 322.666 257.814C320.37 257.233 318.025 256.537 315.597 255.815C314.804 255.575 314.007 255.341 313.201 255.106C313.14 255.089 313.076 255.067 313.012 255.05C311.861 254.713 310.69 254.379 309.49 254.05C307.98 253.636 306.423 253.234 304.804 252.854L304.919 255.9C305.015 258.243 305.38 260.553 306 262.748C306.691 265.448 307.238 267.585 306.084 272.032L305.527 274.185C305.815 275.254 305.915 276.398 305.816 277.527C305.718 278.656 305.425 279.739 304.961 280.692L304.849 280.918L309.49 296.601L309.791 297.618H307.414L304.491 297.622H299.536L292.386 278.466L292.044 277.551V277.504L292.783 240.691C292.792 240.367 292.812 240.038 292.844 239.713C292.974 238.237 293.323 236.81 293.871 235.517C294.418 234.223 295.153 233.087 296.033 232.177C296.876 231.297 297.841 230.65 298.873 230.273C299.905 229.896 300.983 229.797 302.043 229.981L304.491 230.404L309.49 231.267L313.012 231.878L313.083 231.891L323.469 233.685L324.214 229.626L324.352 229.558L328.725 227.418L343.849 220.014L343.887 219.997L344.882 219.51L345 219.766C345.036 219.843 345.071 219.92 345.103 219.997C346.086 222.351 346.887 224.833 347.492 227.405C348.511 231.606 349.349 235.881 350.003 240.209C350.032 240.397 350.058 240.567 350.08 240.721L350.09 240.768C350.099 240.841 350.106 240.888 350.109 240.901C350.409 243.141 350.223 245.448 349.575 247.552Z" fill="#2F2E41"/>
<path id="Vector_106" d="M350.213 233.986C350.165 233.712 350.104 233.435 350.04 233.165C349.533 231.127 348.941 229.127 348.268 227.176C347.513 224.954 346.608 222.575 345.53 219.999C345.009 218.751 344.448 217.454 343.847 216.107C343.547 215.432 343.234 214.744 342.91 214.043C342.898 214.011 342.884 213.98 342.869 213.949L342.776 213.744L327.812 216.419L322.239 217.414L321.907 221.122L321.827 222.041C321.824 222.041 321.824 222.041 321.827 222.045L321.603 224.549V224.553L321.305 227.859L321.28 227.855L313.011 226.424L304.489 224.95L299.912 224.16C298.851 223.975 297.773 224.074 296.741 224.451C295.709 224.828 294.744 225.476 293.901 226.356C293.022 227.266 292.287 228.402 291.739 229.696C291.192 230.989 290.842 232.416 290.712 233.892C290.683 234.191 290.664 234.498 290.654 234.802L286.336 248.468C283.752 256.642 282.106 265.289 281.454 274.118L278.288 287.64L278.739 287.695L285.45 288.528L287.222 288.75L291.124 281.142C291.569 280.275 291.991 279.382 292.385 278.467C293.033 276.974 293.608 275.427 294.109 273.836L302.551 247.007C303.203 247.157 303.849 247.299 304.489 247.434C307.448 248.075 310.289 248.598 313.011 249.002C321.862 250.322 329.526 250.425 336.349 249.306C338.265 248.994 340.118 248.584 341.906 248.075C342.562 247.892 343.209 247.694 343.847 247.482C343.998 247.435 344.145 247.388 344.292 247.336C345.614 246.881 346.829 245.99 347.827 244.745C348.825 243.5 349.572 241.941 350.002 240.21C350.515 238.205 350.588 236.045 350.213 233.986Z" fill="#2F2E41"/>
<path id="Vector_107" d="M280.533 302.562L275.821 299.546L275.082 299.072L273.902 302.942L265.662 305.365C265.254 305.484 264.886 305.774 264.611 306.193C264.336 306.612 264.168 307.137 264.132 307.692C264.097 308.247 264.195 308.803 264.412 309.278C264.63 309.753 264.956 310.123 265.342 310.333L273.393 314.721L275.949 311.649L275.322 315.772L278.355 317.425L281.678 303.297L280.533 302.562Z" fill="#2F2E41"/>
<path id="Vector_108" d="M309.49 296.601L309.791 297.618H309.49V296.601Z" fill="#2F2E41"/>
<path id="Vector_109" d="M307.849 297.835L302.912 300.12L302.137 300.477L303.338 304.337L298.759 313.801C298.532 314.269 298.423 314.821 298.448 315.377C298.473 315.933 298.631 316.464 298.898 316.892C299.165 317.32 299.527 317.623 299.932 317.756C300.337 317.889 300.764 317.846 301.149 317.632L309.182 313.184L309.379 308.599L311.106 312.118L314.132 310.443L309.05 297.281L307.849 297.835Z" fill="#2F2E41"/>
<path id="Vector_110" d="M277.883 156.481C278.117 157.091 278.449 157.624 278.854 158.043C279.259 158.463 279.728 158.759 280.228 158.91C280.728 159.062 281.246 159.065 281.747 158.919C282.248 158.774 282.719 158.484 283.127 158.069L293.509 167.273L293.529 158.625L283.667 151.21C283.1 150.341 282.314 149.78 281.458 149.634C280.602 149.487 279.735 149.765 279.022 150.415C278.309 151.065 277.799 152.041 277.59 153.159C277.38 154.277 277.484 155.459 277.883 156.481Z" fill="#FFB6B6"/>
<path id="Vector_111" d="M285.639 160.479L290.483 153.119L310.206 168.756L336.35 165.559C337.642 165.401 338.945 165.625 340.165 166.214C341.385 166.804 342.493 167.746 343.411 168.972C344.328 170.198 345.032 171.679 345.472 173.309C345.913 174.939 346.079 176.679 345.959 178.405C345.741 181.522 344.605 184.395 342.802 186.395C340.999 188.395 338.676 189.358 336.341 189.073L306.896 185.433L285.639 160.479Z" fill="#CCCCCC"/>
<path id="Vector_112" d="M346.32 160.592L346.275 160.516C342.597 160.031 338.892 160.982 335.611 163.253C332.33 165.524 329.612 169.017 327.787 173.309L325.568 178.529C318.392 190.247 323.607 198.328 323.919 199.53L321.428 214.87L321.986 220.004L322.265 221.529L350.701 241.373C352.32 230.984 350.755 222.132 344.857 215.369L350.563 191.655C351.829 186.411 352.103 180.831 351.363 175.412C350.623 169.992 348.89 164.901 346.32 160.592Z" fill="#CCCCCC"/>
<g id="Group3">
<path id="Vector_113" d="M323.71 275.801H314.588C314.087 275.8 313.602 275.558 313.223 275.118C312.844 274.679 312.597 274.072 312.527 273.408C311.964 267.873 311.964 262.262 312.527 256.727C312.596 256.071 312.839 255.47 313.21 255.032C313.581 254.594 314.058 254.347 314.553 254.335C317.423 252.617 320.514 252.617 323.741 254.335C324.042 254.34 324.338 254.433 324.608 254.608C324.879 254.782 325.118 255.033 325.308 255.344C325.507 255.667 325.649 256.046 325.724 256.451C325.799 256.857 325.806 257.28 325.743 257.69C325.01 262.56 325.01 267.575 325.743 272.445C325.806 272.855 325.799 273.278 325.724 273.684C325.649 274.089 325.507 274.468 325.308 274.791C325.115 275.107 324.871 275.362 324.594 275.537C324.318 275.711 324.016 275.801 323.71 275.801Z" fill="#6C63FF"/>
<path id="Vector_114" d="M322.754 260.695H315.077C315.014 260.695 314.951 260.679 314.892 260.648C314.834 260.616 314.78 260.569 314.735 260.509C314.69 260.449 314.654 260.379 314.63 260.3C314.606 260.222 314.593 260.139 314.593 260.054C314.593 259.969 314.606 259.885 314.63 259.807C314.654 259.729 314.69 259.658 314.735 259.599C314.78 259.539 314.834 259.492 314.892 259.46C314.951 259.428 315.014 259.412 315.077 259.413H322.754C322.818 259.412 322.881 259.428 322.939 259.46C322.998 259.492 323.051 259.539 323.096 259.599C323.141 259.658 323.177 259.729 323.201 259.807C323.226 259.885 323.238 259.969 323.238 260.054C323.238 260.139 323.226 260.222 323.201 260.3C323.177 260.379 323.141 260.449 323.096 260.509C323.051 260.569 322.998 260.616 322.939 260.648C322.881 260.679 322.818 260.695 322.754 260.695Z" fill="white"/>
<path id="Vector_115" d="M322.754 265.821H315.077C315.014 265.822 314.951 265.806 314.892 265.774C314.834 265.742 314.78 265.695 314.735 265.636C314.69 265.576 314.654 265.505 314.63 265.427C314.606 265.349 314.593 265.265 314.593 265.18C314.593 265.096 314.606 265.012 314.63 264.934C314.654 264.856 314.69 264.785 314.735 264.725C314.78 264.666 314.834 264.619 314.892 264.587C314.951 264.555 315.014 264.539 315.077 264.54H322.754C322.818 264.539 322.881 264.555 322.939 264.587C322.998 264.619 323.051 264.666 323.096 264.725C323.141 264.785 323.177 264.856 323.201 264.934C323.226 265.012 323.238 265.096 323.238 265.18C323.238 265.265 323.226 265.349 323.201 265.427C323.177 265.505 323.141 265.576 323.096 265.636C323.051 265.695 322.998 265.742 322.939 265.774C322.881 265.806 322.818 265.822 322.754 265.821Z" fill="white"/>
<path id="Vector_116" d="M322.754 270.948H315.077C315.014 270.949 314.951 270.933 314.892 270.901C314.833 270.869 314.78 270.822 314.735 270.762C314.69 270.703 314.654 270.632 314.63 270.554C314.605 270.476 314.593 270.392 314.593 270.307C314.593 270.222 314.605 270.139 314.63 270.06C314.654 269.982 314.69 269.911 314.735 269.852C314.78 269.792 314.833 269.745 314.892 269.713C314.951 269.681 315.014 269.665 315.077 269.666H322.754C322.818 269.665 322.881 269.681 322.939 269.713C322.998 269.745 323.052 269.792 323.097 269.852C323.142 269.911 323.177 269.982 323.202 270.06C323.226 270.139 323.239 270.222 323.239 270.307C323.239 270.392 323.226 270.476 323.202 270.554C323.177 270.632 323.142 270.703 323.097 270.762C323.052 270.822 322.998 270.869 322.939 270.901C322.881 270.933 322.818 270.949 322.754 270.948Z" fill="white"/>
</g>
<g id="Group2">
<path id="Vector_117" d="M279.556 160.704H270.434C269.933 160.703 269.448 160.461 269.069 160.021C268.69 159.582 268.443 158.975 268.373 158.311C267.809 152.776 267.809 147.165 268.373 141.63C268.442 140.974 268.685 140.374 269.056 139.935C269.427 139.497 269.904 139.25 270.399 139.238C273.269 137.52 276.36 137.52 279.587 139.238C279.888 139.243 280.184 139.336 280.454 139.511C280.725 139.685 280.964 139.936 281.154 140.247C281.353 140.571 281.495 140.949 281.57 141.355C281.645 141.76 281.652 142.183 281.589 142.593C280.856 147.463 280.856 152.478 281.589 157.348C281.652 157.758 281.645 158.181 281.57 158.587C281.495 158.992 281.353 159.371 281.154 159.694C280.961 160.01 280.717 160.265 280.44 160.44C280.164 160.614 279.861 160.704 279.556 160.704Z" fill="#6C63FF"/>
<path id="Vector_118" d="M278.6 145.598H270.923C270.86 145.599 270.797 145.582 270.738 145.551C270.679 145.519 270.626 145.472 270.581 145.412C270.536 145.353 270.5 145.282 270.476 145.203C270.452 145.125 270.439 145.042 270.439 144.957C270.439 144.872 270.452 144.789 270.476 144.71C270.5 144.632 270.536 144.561 270.581 144.502C270.626 144.442 270.679 144.395 270.738 144.363C270.797 144.331 270.86 144.315 270.923 144.316H278.6C278.664 144.315 278.727 144.331 278.785 144.363C278.844 144.395 278.897 144.442 278.942 144.502C278.987 144.561 279.023 144.632 279.047 144.71C279.072 144.789 279.084 144.872 279.084 144.957C279.084 145.042 279.072 145.125 279.047 145.203C279.023 145.282 278.987 145.353 278.942 145.412C278.897 145.472 278.844 145.519 278.785 145.551C278.727 145.582 278.664 145.599 278.6 145.598Z" fill="white"/>
<path id="Vector_119" d="M278.6 150.724H270.923C270.86 150.725 270.797 150.709 270.738 150.677C270.679 150.645 270.626 150.598 270.581 150.539C270.536 150.479 270.5 150.408 270.476 150.33C270.452 150.252 270.439 150.168 270.439 150.084C270.439 149.999 270.452 149.915 270.476 149.837C270.5 149.759 270.536 149.688 270.581 149.628C270.626 149.569 270.679 149.522 270.738 149.49C270.797 149.458 270.86 149.442 270.923 149.443H278.6C278.664 149.442 278.727 149.458 278.785 149.49C278.844 149.522 278.897 149.569 278.942 149.628C278.987 149.688 279.023 149.759 279.047 149.837C279.072 149.915 279.084 149.999 279.084 150.084C279.084 150.168 279.072 150.252 279.047 150.33C279.023 150.408 278.987 150.479 278.942 150.539C278.897 150.598 278.844 150.645 278.785 150.677C278.727 150.709 278.664 150.725 278.6 150.724Z" fill="white"/>
<path id="Vector_120" d="M278.6 155.851H270.923C270.86 155.852 270.797 155.836 270.738 155.804C270.679 155.772 270.626 155.725 270.581 155.665C270.536 155.606 270.5 155.535 270.476 155.457C270.451 155.379 270.439 155.295 270.439 155.21C270.439 155.125 270.451 155.042 270.476 154.964C270.5 154.885 270.536 154.814 270.581 154.755C270.626 154.695 270.679 154.648 270.738 154.616C270.797 154.585 270.86 154.569 270.923 154.569H278.6C278.664 154.569 278.727 154.585 278.785 154.616C278.844 154.648 278.897 154.695 278.943 154.755C278.988 154.814 279.023 154.885 279.048 154.964C279.072 155.042 279.085 155.125 279.085 155.21C279.085 155.295 279.072 155.379 279.048 155.457C279.023 155.535 278.988 155.606 278.943 155.665C278.897 155.725 278.844 155.772 278.785 155.804C278.727 155.836 278.664 155.852 278.6 155.851Z" fill="white"/>
</g>
<g id="Group1">
<path id="Vector_121" d="M119.431 191.965H110.309C109.808 191.964 109.323 191.722 108.944 191.282C108.565 190.843 108.318 190.236 108.248 189.572C107.685 184.037 107.685 178.426 108.248 172.891C108.317 172.235 108.56 171.634 108.931 171.196C109.302 170.758 109.779 170.511 110.274 170.499C113.144 168.781 116.235 168.781 119.462 170.499C119.763 170.504 120.059 170.597 120.329 170.771C120.6 170.946 120.839 171.197 121.029 171.508C121.228 171.831 121.37 172.21 121.445 172.615C121.52 173.021 121.527 173.444 121.464 173.854C120.731 178.724 120.731 183.739 121.464 188.609C121.527 189.019 121.52 189.442 121.445 189.848C121.37 190.253 121.228 190.632 121.029 190.955C120.836 191.271 120.592 191.526 120.315 191.701C120.039 191.875 119.737 191.965 119.431 191.965Z" fill="#6C63FF"/>
<path id="Vector_122" d="M118.475 176.859H110.798C110.735 176.859 110.672 176.843 110.613 176.812C110.555 176.78 110.501 176.733 110.456 176.673C110.411 176.613 110.375 176.543 110.351 176.464C110.327 176.386 110.314 176.302 110.314 176.218C110.314 176.133 110.327 176.049 110.351 175.971C110.375 175.893 110.411 175.822 110.456 175.763C110.501 175.703 110.555 175.656 110.613 175.624C110.672 175.592 110.735 175.576 110.798 175.577H118.475C118.539 175.576 118.602 175.592 118.66 175.624C118.719 175.656 118.772 175.703 118.817 175.763C118.862 175.822 118.898 175.893 118.922 175.971C118.947 176.049 118.959 176.133 118.959 176.218C118.959 176.302 118.947 176.386 118.922 176.464C118.898 176.543 118.862 176.613 118.817 176.673C118.772 176.733 118.719 176.78 118.66 176.812C118.602 176.843 118.539 176.859 118.475 176.859Z" fill="white"/>
<path id="Vector_123" d="M118.475 181.985H110.798C110.735 181.986 110.672 181.97 110.613 181.938C110.555 181.906 110.501 181.859 110.456 181.8C110.411 181.74 110.375 181.669 110.351 181.591C110.327 181.513 110.314 181.429 110.314 181.344C110.314 181.26 110.327 181.176 110.351 181.098C110.375 181.02 110.411 180.949 110.456 180.889C110.501 180.83 110.555 180.783 110.613 180.751C110.672 180.719 110.735 180.703 110.798 180.704H118.475C118.539 180.703 118.602 180.719 118.66 180.751C118.719 180.783 118.772 180.83 118.817 180.889C118.862 180.949 118.898 181.02 118.922 181.098C118.947 181.176 118.959 181.26 118.959 181.344C118.959 181.429 118.947 181.513 118.922 181.591C118.898 181.669 118.862 181.74 118.817 181.8C118.772 181.859 118.719 181.906 118.66 181.938C118.602 181.97 118.539 181.986 118.475 181.985Z" fill="white"/>
<path id="Vector_124" d="M118.475 187.112H110.798C110.735 187.113 110.672 187.097 110.613 187.065C110.554 187.033 110.501 186.986 110.456 186.926C110.411 186.867 110.375 186.796 110.351 186.718C110.326 186.64 110.314 186.556 110.314 186.471C110.314 186.386 110.326 186.303 110.351 186.224C110.375 186.146 110.411 186.075 110.456 186.016C110.501 185.956 110.554 185.909 110.613 185.877C110.672 185.845 110.735 185.829 110.798 185.83H118.475C118.539 185.829 118.602 185.845 118.66 185.877C118.719 185.909 118.773 185.956 118.818 186.016C118.863 186.075 118.898 186.146 118.923 186.224C118.947 186.303 118.96 186.386 118.96 186.471C118.96 186.556 118.947 186.64 118.923 186.718C118.898 186.796 118.863 186.867 118.818 186.926C118.773 186.986 118.719 187.033 118.66 187.065C118.602 187.097 118.539 187.113 118.475 187.112Z" fill="white"/>
</g>
<path id="Vector_125" d="M326.382 260.228C326.824 259.88 327.202 259.407 327.492 258.842C327.782 258.277 327.975 257.634 328.058 256.959C328.142 256.283 328.114 255.591 327.975 254.932C327.837 254.273 327.592 253.662 327.258 253.143L333.522 238.756L327.056 239.243L322.099 252.83C321.483 253.638 321.111 254.719 321.052 255.869C320.993 257.019 321.252 258.158 321.78 259.07C322.308 259.982 323.068 260.603 323.916 260.817C324.765 261.03 325.642 260.821 326.382 260.228Z" fill="#FFB6B6"/>
<path id="Vector_126" d="M328.91 249.651L323.122 243.63L333.639 216.408L329.698 181.743C329.504 180.029 329.594 178.279 329.962 176.618C330.331 174.956 330.969 173.423 331.831 172.127C332.693 170.832 333.758 169.806 334.95 169.122C336.142 168.438 337.433 168.113 338.73 168.17C341.072 168.276 343.288 169.619 344.89 171.905C346.492 174.19 347.349 177.231 347.275 180.359L346.301 219.831L328.91 249.651Z" fill="#CCCCCC"/>
<path id="Vector_127" d="M49.1469 242.214C49.5114 241.724 49.7912 241.134 49.9665 240.485C50.1419 239.835 50.2084 239.142 50.1615 238.455C50.1147 237.767 49.9555 237.102 49.6952 236.506C49.435 235.909 49.08 235.396 48.6552 235.003L54.2846 197.66L48.068 200.326L43.5619 236.446C43.1144 237.442 42.9563 238.624 43.1174 239.766C43.2785 240.908 43.7477 241.932 44.4361 242.643C45.1245 243.353 45.9843 243.703 46.8525 243.623C47.7207 243.544 48.5371 243.043 49.1469 242.214Z" fill="#9E616A"/>
<path id="Vector_128" d="M57.459 163.206L53.6019 159.318C53.6019 159.318 50.1993 158.996 49.5967 167.191C48.994 175.386 47.7566 191.357 47.7566 191.357L41.8545 227.865L50.0247 230.26L56.3463 190.861L60.1386 179.161L57.459 163.206Z" fill="#CCCCCC"/>
<path id="Vector_129" d="M51.1001 222.821L72.8351 222.337L74.6464 202.502H51.1001V222.821Z" fill="#9E616A"/>
<path id="Vector_130" d="M70.6614 344.884H75.679L78.066 319.036L70.6603 319.037L70.6614 344.884Z" fill="#9E616A"/>
<path id="Vector_131" d="M39.2269 345.505L44.2445 345.457L46.4958 319.588L39.97 321.587L39.2269 345.505Z" fill="#9E616A"/>
<path id="Vector_132" d="M54.9202 185.42L53.7834 189.367L54.0105 193.315L76.2615 203.608L75.1577 186.331L72.6563 182.382L54.9202 185.42Z" fill="#FFB6B6"/>
<path id="Vector_133" d="M64.4661 149.893C68.8552 149.893 72.4132 145.141 72.4132 139.279C72.4132 133.417 68.8552 128.665 64.4661 128.665C60.077 128.665 56.5189 133.417 56.5189 139.279C56.5189 145.141 60.077 149.893 64.4661 149.893Z" fill="#9E616A"/>
<path id="Vector_134" d="M69.4169 341.578L77.3487 340.946V345.484L84.8898 352.44C85.2622 352.784 85.5428 353.277 85.6904 353.849C85.838 354.42 85.8449 355.04 85.7102 355.617C85.5755 356.194 85.3062 356.698 84.9416 357.057C84.577 357.415 84.1362 357.608 83.6836 357.608H74.2404L72.6127 353.119L71.9772 357.608H68.4167L69.4169 341.578Z" fill="#2F2E41"/>
<path id="Vector_135" d="M37.5105 342.214L45.4388 341.508L45.4626 346.047L53.0399 352.931C53.4142 353.271 53.6973 353.762 53.8479 354.332C53.9985 354.902 54.0087 355.522 53.877 356.1C53.7453 356.679 53.4787 357.186 53.1159 357.547C52.7532 357.909 52.3134 358.106 51.8608 358.111L42.4179 358.199L40.7667 353.725L40.1547 358.22L36.5944 358.253L37.5105 342.214Z" fill="#2F2E41"/>
<path id="Vector_136" d="M37.6656 325.686L41.3192 286.683L45.6662 245.56C42.4828 237.664 49.651 213.146 49.651 213.146L50.6628 213.21L73.5644 218.981L73.5595 218.951C78.2436 236.014 79.7955 244.443 79.5388 262.613L78.616 327.931H78.9055C79.3858 327.931 79.8465 328.186 80.1862 328.639C80.5259 329.093 80.7167 329.708 80.7167 330.35C80.7167 330.991 80.5259 331.606 80.1862 332.06C79.8465 332.514 79.3858 332.769 78.9055 332.769H69.8492C69.6111 332.769 69.3752 332.707 69.1551 332.586C68.935 332.464 68.735 332.286 68.5665 332.062C68.398 331.837 68.2643 331.57 68.173 331.276C68.0818 330.983 68.0349 330.668 68.0349 330.35C68.0349 330.032 68.0818 329.717 68.173 329.423C68.2643 329.129 68.398 328.862 68.5665 328.638C68.735 328.413 68.935 328.235 69.1551 328.114C69.3752 327.992 69.6111 327.93 69.8492 327.931H70.0827L61.7702 250.157L54.7225 282.812L46.753 325.387C49.651 324.419 49.201 326.661 49.201 327.931C49.201 328.572 49.0102 329.188 48.6705 329.641C48.3308 330.095 47.8701 330.35 47.3897 330.35H38.3335C37.9123 330.35 37.5041 330.155 37.1794 329.796C36.8546 329.438 36.6336 328.94 36.5545 328.387C36.4754 327.835 36.543 327.263 36.7459 326.77C36.9487 326.277 37.2739 325.894 37.6656 325.686Z" fill="#2F2E41"/>
<path id="Vector_137" d="M47.8678 214.416L48.5923 204.74C48.6675 204.345 48.8344 203.992 49.069 203.732C49.3036 203.472 49.5939 203.317 49.8982 203.291C50.2001 198.681 51.4702 178.797 51.546 177.929L51.549 177.893L52.1265 161.416C52.1475 160.817 52.3328 160.25 52.647 159.823C52.9613 159.395 53.3824 159.137 53.83 159.098L56.8804 158.832C56.9223 158.83 56.9619 158.806 56.9911 158.766C57.0202 158.726 57.0364 158.672 57.0364 158.616C57.0364 158.166 57.1028 157.721 57.2317 157.305C57.3606 156.89 57.5496 156.512 57.7878 156.194C58.026 155.876 58.3087 155.623 58.62 155.451C58.9312 155.279 59.2648 155.19 59.6016 155.19H68.633C69.2179 155.191 69.7827 155.476 70.2213 155.993C70.6599 156.51 70.9421 157.223 71.015 157.998C71.019 158.052 71.0379 158.101 71.068 158.137C71.0981 158.172 71.1371 158.191 71.1773 158.19H71.1783C72.2045 158.162 73.2043 158.626 73.9963 159.498C74.7882 160.37 75.3198 161.592 75.4947 162.943C76.7294 172.537 79.2038 194.312 77.9804 206.418C77.5545 210.632 78.4726 207.295 78.6337 210.821C78.6497 211.161 78.6152 211.503 78.5321 211.826C78.4491 212.149 78.3192 212.447 78.1498 212.702C78.4966 212.871 78.7796 213.215 78.9375 213.66C79.0954 214.105 79.1154 214.616 78.9932 215.081L79.1519 215.028C79.1054 215.275 79.023 215.506 78.9094 215.71C78.7959 215.914 78.6533 216.086 78.4899 216.217C78.3266 216.347 78.1456 216.433 77.9573 216.47C77.7691 216.507 77.5772 216.494 77.3927 216.432L53.7646 220.708C52.9886 220.446 47.6721 215.452 47.8678 214.416Z" fill="#CCCCCC"/>
<path id="Vector_138" d="M111.005 175.075C110.857 175.737 110.602 176.347 110.259 176.862C109.915 177.378 109.491 177.787 109.016 178.06C108.542 178.333 108.028 178.464 107.511 178.443C106.994 178.422 106.488 178.25 106.026 177.939L96.8915 189.073L95.6786 180.505L104.545 171.273C104.987 170.272 105.689 169.523 106.517 169.167C107.346 168.811 108.243 168.873 109.039 169.342C109.836 169.81 110.476 170.653 110.838 171.71C111.2 172.766 111.26 173.964 111.005 175.075Z" fill="#9E616A"/>
<path id="Vector_139" d="M79.212 166.565C79.212 166.565 76.0269 156.952 72.004 158.863C67.9812 160.774 70.0582 170.101 70.0582 170.101L85.1722 200.517C85.1722 200.517 106.972 181.841 104.321 181.709C101.67 181.577 100.877 175.138 100.877 175.138L89.3558 182.826L88.966 180.089L88.3411 180.924L86.7288 179.229L79.212 166.565Z" fill="#CCCCCC"/>
<path id="Vector_140" d="M339.764 156.005C345.892 156.005 350.86 149.37 350.86 141.186C350.86 133.003 345.892 126.368 339.764 126.368C333.637 126.368 328.669 133.003 328.669 141.186C328.669 149.37 333.637 156.005 339.764 156.005Z" fill="#FFB6B6"/>
<path id="Vector_141" d="M375.373 162.991C374.093 165.415 372.224 167.172 370.084 167.965C369.227 168.305 368.343 168.506 367.451 168.562C367.341 167.214 367.077 165.896 366.668 164.655C366.71 165.976 366.572 167.297 366.262 168.553C364.922 168.451 363.611 167.982 362.413 167.175C361.235 166.384 360.212 165.238 359.424 163.826C358.636 162.415 358.105 160.778 357.874 159.045C357.404 154.992 358.78 151.012 359.277 146.965C359.777 142.918 358.839 137.792 355.873 136.729C353.614 135.918 353.867 136.268 351.989 138.13C353.943 141.988 346.728 156.124 343.775 154.891C342.105 154.194 341.037 152.149 340.692 152.149C338.372 157.488 342.741 166.484 338.337 168.352L338.7 167.867C341.358 163.5 335.802 154.257 338.46 149.89C339.202 148.668 339.992 147.221 339.773 145.676C339.565 144.207 337.819 143.43 337.308 144.637C338.228 141.824 336.87 138.069 334.623 137.347C332.626 136.704 332.662 137.496 330.659 137.841C330.528 136.684 330.283 135.556 329.931 134.486C329.968 135.639 329.867 136.793 329.632 137.905C328.924 137.886 328.241 137.556 327.688 136.966C326.054 135.208 326.385 131.514 327.843 129.5C329.304 127.486 331.474 126.76 333.543 126.291C334.145 120.696 345.704 120.112 347.236 125.703C347.889 121.528 351.802 119.361 354.844 120.656C357.885 121.952 359.996 125.746 361.107 129.744C362.219 133.739 362.529 138.039 363.213 142.202C363.898 146.364 365.055 150.603 367.437 153.441C369.819 156.275 373.701 157.213 376.211 154.58C376.575 155.972 376.69 157.458 376.544 158.919C376.399 160.381 375.998 161.776 375.373 162.991Z" fill="#2F2E41"/>
<g id="Group4">
<path id="Vector_142" d="M31.5436 299.826L29.9902 310.234C29.8732 311.03 29.7508 311.84 29.6178 312.643C28.3195 312.283 26.9734 312.384 25.7131 312.934C26.713 314.842 27.609 316.844 28.3943 318.923C27.4154 322.952 25.9791 326.674 23.5746 329.367C21.9686 331.126 20.0505 332.302 18.0052 332.782C15.9599 333.262 13.8565 333.031 11.8977 332.11L11.9668 331.698C9.38144 324.998 10.7859 316.55 13.999 310.362C15.6378 307.309 17.5796 304.568 19.7709 302.213C21.9414 299.797 24.2874 297.63 26.6122 295.492C27.1343 295.012 27.7516 294.751 28.3853 294.743C29.0189 294.734 29.6401 294.978 30.1695 295.443C30.6988 295.908 31.1123 296.574 31.357 297.355C31.6018 298.135 31.6668 298.996 31.5436 299.826Z" fill="#E4E4E4"/>
<path id="a4b268fa-75d0-4ac1-9d87-14bdca948464-2189" d="M12.4509 357.154C11.7971 350.793 11.1247 344.351 11.5832 337.922C11.9907 332.213 13.2946 326.636 15.9502 322.063C17.3597 319.641 19.0748 317.565 21.0184 315.93C21.5253 315.504 21.9913 316.576 21.487 317.001C18.1243 319.839 15.5233 324.03 14.059 328.97C12.4418 334.463 12.1822 340.452 12.4631 346.287C12.6318 349.816 12.9887 353.321 13.3489 356.823C13.3779 356.982 13.3604 357.149 13.3001 357.291C13.2398 357.433 13.1411 357.539 13.0244 357.586C12.9056 357.629 12.7789 357.608 12.672 357.527C12.565 357.445 12.4863 357.311 12.453 357.153L12.4509 357.154Z" fill="#F2F2F2"/>
<path id="Vector_143" d="M479.468 196.807L477.915 207.215C477.798 208.011 477.675 208.821 477.542 209.624C476.244 209.264 474.898 209.365 473.637 209.915C474.637 211.823 475.533 213.825 476.319 215.904C475.34 219.933 473.903 223.656 471.499 226.348C469.893 228.107 467.975 229.283 465.93 229.763C463.884 230.243 461.781 230.012 459.822 229.091L459.891 228.679C457.306 221.979 458.71 213.531 461.923 207.343C463.562 204.29 465.504 201.549 467.695 199.194C469.866 196.778 472.212 194.611 474.537 192.473C475.059 191.993 475.676 191.733 476.31 191.724C476.943 191.715 477.564 191.959 478.094 192.424C478.623 192.89 479.037 193.555 479.281 194.336C479.526 195.116 479.591 195.977 479.468 196.807Z" fill="#E4E4E4"/>
<path id="a4b268fa-75d0-4ac1-9d87-14bdca948464-2189_2" d="M460.375 254.135C459.721 247.774 459.049 241.332 459.508 234.903C459.915 229.194 461.219 223.617 463.875 219.045C465.284 216.622 466.999 214.546 468.943 212.911C469.45 212.485 469.916 213.557 469.411 213.982C466.049 216.82 463.448 221.011 461.983 225.951C460.366 231.444 460.107 237.433 460.387 243.268C460.556 246.797 460.913 250.302 461.273 253.805C461.302 253.963 461.285 254.13 461.224 254.272C461.164 254.414 461.065 254.52 460.949 254.568C460.83 254.61 460.703 254.589 460.596 254.508C460.489 254.427 460.411 254.292 460.377 254.134L460.375 254.135Z" fill="#F2F2F2"/>
</g>
<path id="Vector_144" d="M497.367 358.782L0.63372 359C0.466046 358.999 0.305409 358.91 0.187016 358.751C0.0686239 358.593 0.00213623 358.378 0.00213623 358.154C0.00213623 357.93 0.0686239 357.715 0.187016 357.557C0.305409 357.398 0.466046 357.309 0.63372 357.308L497.367 357.09C497.535 357.09 497.695 357.18 497.814 357.338C497.932 357.497 497.999 357.712 497.999 357.936C497.999 358.16 497.932 358.374 497.814 358.533C497.695 358.692 497.535 358.781 497.367 358.782Z" fill="#CACACA"/>
<path id="Vector_145" d="M55.1127 132.78C53.8939 133.561 52.5295 132.386 51.4772 131.222L51.8536 131.656C49.9939 134.072 49.1243 137.549 48.6995 140.972C48.2742 144.391 48.2268 147.887 47.6913 151.282C47.1554 154.673 46.0438 158.08 43.9674 160.157C41.1857 162.939 37.3491 162.76 33.9354 161.907C33.8899 161.895 33.8475 161.886 33.8021 161.873C34.7206 158.331 35.0939 154.578 34.8998 150.839C33.9848 154.586 32.427 157.996 30.3507 160.797C28.0874 159.965 25.8782 158.89 23.7447 157.582C22.3643 156.734 20.8779 155.574 20.4948 153.609C20.1108 151.659 21.0027 149.614 22.1953 148.383C23.3879 147.152 24.8516 146.509 26.2103 145.632C27.5667 144.759 28.909 143.514 29.4521 141.635C30.7048 137.313 27.1363 132.353 28.527 128.104C29.2128 126.014 30.8926 124.878 32.4714 124.002C34.8817 122.668 37.3567 121.553 39.8796 120.664C42.0943 119.884 44.4068 119.278 46.6629 119.789C48.919 120.301 51.1294 122.133 51.9414 124.995C53.2962 125.607 54.7347 126.296 55.6042 127.819C56.4733 129.338 56.4032 131.954 55.1127 132.78Z" fill="#2F2E41"/>
<path id="Vector_146" d="M65.9578 127.771C62.471 124.095 59.6517 124.723 57.4769 127.007C57.1112 126.463 55.5553 127.958 55.0285 127.743L53.123 132.521C52.1425 134.831 51.7402 137.19 51.8987 138.518C50.0951 145.273 54.3722 149.835 59.4302 152.243C61.4484 153.211 63.6505 153.254 65.6889 152.364L65.7511 151.213L66.1341 152.157C66.1341 152.157 70.7581 164.872 71.8508 165.443C71.1878 163.146 69.4391 152.229 68.951 149.954C68.2817 146.858 68.7389 141.939 69.1323 138.923C69.3774 137.064 69.3903 135.163 69.1702 133.298L69.1605 133.216L70.2424 136.133L72.6698 134.095C71.742 130.486 71.7235 126.169 65.9578 127.771Z" fill="#2F2E41"/>
</g>
<defs>
<clipPath id="clip0_0_1">
<rect width="498" height="359" fill="white"/>
</clipPath>
</defs>
</svg>
