<svg xmlns="http://www.w3.org/2000/svg" width="360.909" height="81.178" viewBox="0 0 360.909 81.178">
  <g id="_1_BayaSystems-Logo_BLACK_WITH_TAGLINE" data-name="1_BayaSystems-Logo BLACK_WITH TAGLINE" transform="translate(-320 -17)">
    <g id="_BayaSystems-Logo_Standard_Tagline" data-name="_BayaSystems-Logo_Standard+Tagline" transform="translate(170.101 -212.7)">
      <g id="Group_8098" data-name="Group 8098" transform="translate(235.765 278.43)">
        <path id="Path_49636" data-name="Path 49636" d="M803.761,619.117a11.025,11.025,0,0,1-4.247-.786,8.1,8.1,0,0,1-3.116-2.25,7.305,7.305,0,0,1-1.6-3.448l2.343-.386a5.728,5.728,0,0,0,2.383,3.435,7.488,7.488,0,0,0,4.327,1.238,6.216,6.216,0,0,0,2.969-.519,4.821,4.821,0,0,0,2.064-1.491,3.6,3.6,0,0,0,.745-2.3,2.587,2.587,0,0,0-.306-1.491,2.989,2.989,0,0,0-.826-1.025,5.667,5.667,0,0,0-1.132-.679,8.105,8.105,0,0,0-1.185-.439l-5.712-1.7a10.144,10.144,0,0,1-1.9-.759,6.53,6.53,0,0,1-1.531-1.105,4.8,4.8,0,0,1-1.012-1.531,5.235,5.235,0,0,1-.359-2,5.513,5.513,0,0,1,1-3.3,6.437,6.437,0,0,1,2.743-2.144,9.57,9.57,0,0,1,3.954-.732,9.01,9.01,0,0,1,4.021.8,5.33,5.33,0,0,1,1.451.919,5.663,5.663,0,0,1,1.931,3.222l-2.41.439a3.493,3.493,0,0,0-1.584-2.317,5.112,5.112,0,0,0-.652-.373,7.042,7.042,0,0,0-2.783-.506,6.936,6.936,0,0,0-2.7.506,4.546,4.546,0,0,0-1.864,1.385,3.193,3.193,0,0,0-.692,2,2.583,2.583,0,0,0,.639,1.824,4.661,4.661,0,0,0,1.558,1.078,14.1,14.1,0,0,0,1.811.639l4.407,1.292a16.631,16.631,0,0,1,1.624.546,7.842,7.842,0,0,1,1.811,1,5.325,5.325,0,0,1,1.465,1.691,5.478,5.478,0,0,1,.573,2.663,6.048,6.048,0,0,1-.612,2.8,5.8,5.8,0,0,1-1.731,2.077,8.113,8.113,0,0,1-2.61,1.292,11.5,11.5,0,0,1-3.262.439Z" transform="translate(-794.8 -595.696)"/>
        <path id="Path_49637" data-name="Path 49637" d="M932.275,665.682l3.875-10.865.053,2.623L928.8,639h2.437l6.072,15.471h-1L941.9,639h2.343l-9.666,26.669h-2.3Z" transform="translate(-910.959 -633.234)"/>
        <path id="Path_49638" data-name="Path 49638" d="M1060.943,655.515a8.628,8.628,0,0,1-4.886-1.278,5.349,5.349,0,0,1-2.357-3.568l2.343-.386a3.815,3.815,0,0,0,1.718,2.29,6,6,0,0,0,3.3.852,5.076,5.076,0,0,0,3.036-.8,2.542,2.542,0,0,0,1.105-2.2c0-.932-.12-.945-.346-1.278a3.118,3.118,0,0,0-1.424-.919c-.719-.28-1.8-.612-3.222-1a21.759,21.759,0,0,1-3.595-1.252,4.546,4.546,0,0,1-1.851-1.451,3.569,3.569,0,0,1-.546-2.01,4.453,4.453,0,0,1,.812-2.53,5.331,5.331,0,0,1,2.25-1.691,8.654,8.654,0,0,1,3.342-.6,9,9,0,0,1,3.422.612,6.1,6.1,0,0,1,2.437,1.731,4.792,4.792,0,0,1,1.092,2.583l-2.343.426a3.469,3.469,0,0,0-1.478-2.357,5.526,5.526,0,0,0-3.156-.905,5.171,5.171,0,0,0-2.929.679,2.223,2.223,0,0,0-1.132,1.931c0,.8.133.826.413,1.145a3.814,3.814,0,0,0,1.478.905,26.745,26.745,0,0,0,3.062.919,19.485,19.485,0,0,1,3.661,1.252,4.539,4.539,0,0,1,1.891,1.544,4.1,4.1,0,0,1,.559,2.21,4.456,4.456,0,0,1-1.771,3.755,7.78,7.78,0,0,1-4.886,1.371Z" transform="translate(-1019.229 -632.107)"/>
        <path id="Path_49639" data-name="Path 49639" d="M1165.5,609v-1.971h11.078V609Zm11.078,15.205a11.249,11.249,0,0,1-2.809.24,6.166,6.166,0,0,1-2.476-.6,3.574,3.574,0,0,1-1.651-1.664,4.7,4.7,0,0,1-.493-1.9q-.04-.959-.04-2.2V602.1h2.277v15.884c0,.706,0,1.3.027,1.771a2.779,2.779,0,0,0,.319,1.265,2.362,2.362,0,0,0,1.8,1.252,9.553,9.553,0,0,0,3.036-.093V624.2Z" transform="translate(-1116.143 -601.247)"/>
        <path id="Path_49640" data-name="Path 49640" d="M1265.582,655.615a8.034,8.034,0,0,1-4.274-1.092,7.483,7.483,0,0,1-2.809-3.076,10.231,10.231,0,0,1-1-4.66,11.024,11.024,0,0,1,.985-4.78,7.343,7.343,0,0,1,2.769-3.116,7.957,7.957,0,0,1,4.234-1.092,7.854,7.854,0,0,1,4.274,1.145,7.171,7.171,0,0,1,2.676,3.289,12.28,12.28,0,0,1,.826,5.113h-2.343v-.812a8.035,8.035,0,0,0-1.411-4.953,4.79,4.79,0,0,0-3.954-1.678,5.161,5.161,0,0,0-4.167,1.771,7.79,7.79,0,0,0-1.451,5.033,7.477,7.477,0,0,0,1.451,4.953,5,5,0,0,0,4.1,1.758,4.732,4.732,0,0,0,3.169-.839,5.714,5.714,0,0,0,2.13-2.41l2.144.826a7.713,7.713,0,0,1-2.943,3.422,8.12,8.12,0,0,1-4.407,1.212Zm-6.458-8.268v-1.917h12.9v1.917Z" transform="translate(-1195.894 -632.194)"/>
        <path id="Path_49641" data-name="Path 49641" d="M1393.7,655.149V637.973h2.064v4.447h.253v12.729Zm10.106,0V644.218a4.483,4.483,0,0,0-1.052-3.182,3.674,3.674,0,0,0-2.823-1.172,3.633,3.633,0,0,0-2.836,1.2,4.585,4.585,0,0,0-1.078,3.182l-1.371-.746a5.554,5.554,0,0,1,.772-2.916,5.486,5.486,0,0,1,2.09-2.037,6.126,6.126,0,0,1,3.022-.746,5.713,5.713,0,0,1,2.876.692,4.94,4.94,0,0,1,1.984,2,6.588,6.588,0,0,1,.719,3.2v11.464h-2.3Zm10.052,0V644.058a4.182,4.182,0,0,0-1.065-3.076,3.682,3.682,0,0,0-2.756-1.118,3.069,3.069,0,0,0-1.864.439,3.519,3.519,0,0,0-1.491,1.411,4.906,4.906,0,0,0-.586,2.53l-1.358-.386a6.09,6.09,0,0,1,.706-3.169,5.416,5.416,0,0,1,2.09-2.117,6.03,6.03,0,0,1,3.022-.759,5.437,5.437,0,0,1,4.088,1.571,5.814,5.814,0,0,1,1.531,4.247v11.53h-2.317Z" transform="translate(-1313.959 -632.194)"/>
        <path id="Path_49642" data-name="Path 49642" d="M1588.743,655.515a8.628,8.628,0,0,1-4.886-1.278,5.35,5.35,0,0,1-2.357-3.568l2.343-.386a3.815,3.815,0,0,0,1.718,2.29,6,6,0,0,0,3.3.852,5.075,5.075,0,0,0,3.036-.8,2.543,2.543,0,0,0,1.105-2.2c0-.932-.12-.945-.346-1.278a3.121,3.121,0,0,0-1.425-.919c-.719-.28-1.8-.612-3.222-1a21.775,21.775,0,0,1-3.595-1.252,4.547,4.547,0,0,1-1.851-1.451,3.57,3.57,0,0,1-.546-2.01,4.454,4.454,0,0,1,.812-2.53,5.332,5.332,0,0,1,2.25-1.691,8.653,8.653,0,0,1,3.342-.6,9.007,9.007,0,0,1,3.422.612,6.1,6.1,0,0,1,2.437,1.731,4.792,4.792,0,0,1,1.092,2.583l-2.343.426a3.468,3.468,0,0,0-1.478-2.357,5.526,5.526,0,0,0-3.156-.905,5.171,5.171,0,0,0-2.929.679,2.223,2.223,0,0,0-1.132,1.931c0,.8.133.826.413,1.145a3.814,3.814,0,0,0,1.478.905,26.76,26.76,0,0,0,3.062.919,19.485,19.485,0,0,1,3.661,1.252,4.539,4.539,0,0,1,1.891,1.544,4.1,4.1,0,0,1,.559,2.21,4.456,4.456,0,0,1-1.771,3.755,7.78,7.78,0,0,1-4.886,1.371Z" transform="translate(-1476.755 -632.107)"/>
      </g>
      <path id="Path_49643" data-name="Path 49643" d="M1715.875,633.8a3.8,3.8,0,0,1,1.5.306,4.153,4.153,0,0,1,1.238.839,3.809,3.809,0,0,1,.825,1.238,3.77,3.77,0,0,1,.293,1.491,3.8,3.8,0,0,1-1.145,2.743,4.052,4.052,0,0,1-1.225.826,3.783,3.783,0,0,1-1.491.306,3.913,3.913,0,0,1-1.518-.306,3.642,3.642,0,0,1-1.238-.839,3.81,3.81,0,0,1-.826-1.238,3.772,3.772,0,0,1-.293-1.491,4.022,4.022,0,0,1,.293-1.491,4.115,4.115,0,0,1,.826-1.238,4.064,4.064,0,0,1,1.238-.839,3.881,3.881,0,0,1,1.531-.306Zm-.013.865a2.836,2.836,0,0,0-1.172.24,2.929,2.929,0,0,0-.945.652,3.315,3.315,0,0,0-.626.959,3.044,3.044,0,0,0-.226,1.158,3.163,3.163,0,0,0,.226,1.172,2.915,2.915,0,0,0,.626.959,3.116,3.116,0,0,0,.945.639,2.918,2.918,0,0,0,2.317,0,3.288,3.288,0,0,0,.945-.639,3.18,3.18,0,0,0,.639-.959,2.882,2.882,0,0,0,.24-1.172,3.092,3.092,0,0,0-.226-1.158,3.06,3.06,0,0,0-.626-.959,2.794,2.794,0,0,0-.945-.652A2.881,2.881,0,0,0,1715.861,634.665Zm.213.826a2.2,2.2,0,0,1,.359.027,1.5,1.5,0,0,1,.519.133,1.194,1.194,0,0,1,.466.36,1.087,1.087,0,0,1,.213.706,1.126,1.126,0,0,1-.187.666.987.987,0,0,1-.639.413v.027a1.127,1.127,0,0,1,.359.16.776.776,0,0,1,.226.24.826.826,0,0,1,.106.32,1.8,1.8,0,0,1,.04.386,3.723,3.723,0,0,0,.027.453,1.649,1.649,0,0,0,.027.28.558.558,0,0,0,.04.173,1.238,1.238,0,0,0,.067.133h-.906a.4.4,0,0,1-.053-.106,1.064,1.064,0,0,1-.04-.146,1.721,1.721,0,0,0-.027-.226c0-.093-.013-.2-.027-.346a1.981,1.981,0,0,0-.053-.439.549.549,0,0,0-.133-.28.541.541,0,0,0-.24-.16,1.3,1.3,0,0,0-.386-.08h-.786v1.771h-.879v-4.434h1.864Zm-.985,1.944h1.052a.559.559,0,0,0,.28-.08.545.545,0,0,0,.213-.213.73.73,0,0,0,.093-.413c-.027-.226-.107-.373-.253-.426a1.416,1.416,0,0,0-.493-.08h-.892v1.212Z" transform="translate(-1354.115 -350.296)"/>
      <g id="Group_8100" data-name="Group 8100" transform="translate(149.899 229.7)">
        <path id="Path_49674" data-name="Path 49674" d="M325.481,671.055l-15.7-9.946a2.738,2.738,0,0,0-3.036,0l-15.7,9.946a1.1,1.1,0,0,0,.08,1.931l15.445,10.532a3.222,3.222,0,0,0,3.382,0L325.4,672.986A1.109,1.109,0,0,0,325.481,671.055Z" transform="translate(-271.797 -603.271)" fill="#0086ff"/>
        <path id="Path_49675" data-name="Path 49675" d="M254.133,533.5l-1.851,1.491,11.97,8.295a.875.875,0,0,1-.093,1.491l-24.006,17.029a1.575,1.575,0,0,1-1.638,0l-24.006-17.029a.875.875,0,0,1-.093-1.491l11.97-8.295-1.851-1.491-12.928,9.054a1.861,1.861,0,0,0,.2,3.156l25.8,18.2a3.25,3.25,0,0,0,3.462,0l25.8-18.2a1.861,1.861,0,0,0,.2-3.156L254.146,533.5Z" transform="translate(-202.712 -493.051)" fill="#24272b"/>
        <path id="Path_49676" data-name="Path 49676" d="M221.238,297.85l-32.474-22.462a4.86,4.86,0,0,0-5.153,0L151.138,297.85a2.391,2.391,0,0,0-.04,4.167l32.461,23.26a4.806,4.806,0,0,0,5.246,0l32.461-23.26a2.391,2.391,0,0,0-.04-4.167Zm-35.164-16.923,11.4,7.962-11.4,7.962-11.4-7.962ZM159.02,299.834l11.4-7.962,11.4,7.962-11.4,7.962Zm27.055,18.853-11.4-7.962,11.4-7.962,11.4,7.962Zm15.591-10.945-11.4-7.962,11.4-7.962,11.4,7.962Z" transform="translate(-149.899 -268.665)" fill="#0086ff"/>
        <path id="Path_49677" data-name="Path 49677" d="M473.427,232l-8.734,5.592c-1.039.706-3.741-.6-1.544-2.623L452.9,231.937c-1.718-.786-1.331-2.237.107-2.237h20.411c1.158,0,1.8,1.252,0,2.317Z" transform="translate(-411.568 -229.7)" fill="#24272b"/>
      </g>
      <g id="Group_8101" data-name="Group 8101" transform="translate(236.084 235.612)">
        <path id="Path_49678" data-name="Path 49678" d="M804.869,308.238a6.819,6.819,0,0,0,2.716,2.53,9.511,9.511,0,0,0,4.753,1.132,13.456,13.456,0,0,0,4.9-.879,12.228,12.228,0,0,0,4.234-2.65,13.382,13.382,0,0,0,2.982-4.447,15.821,15.821,0,0,0,1.132-6.231,15.245,15.245,0,0,0-1.252-6.364,12.972,12.972,0,0,0-3.142-4.274,12.53,12.53,0,0,0-4.181-2.437,13.5,13.5,0,0,0-4.327-.786,5.954,5.954,0,0,0-1.278.053,9.407,9.407,0,0,0-1.9.333,10.985,10.985,0,0,0-2.224.879,7.99,7.99,0,0,0-2.184,1.718l-.253.28V274.1H797.2v36.908h7.31v-2.823h.333l.04.08Zm.107-12.942a6.562,6.562,0,0,1,3.448-3.755,6.745,6.745,0,0,1,2.863-.586,6.16,6.16,0,0,1,2.743.586,6.962,6.962,0,0,1,2.1,1.531,6.648,6.648,0,0,1,1.345,2.2,7.354,7.354,0,0,1,.466,2.556,7,7,0,0,1-.493,2.583,6.752,6.752,0,0,1-3.5,3.768,6.586,6.586,0,0,1-2.809.586,6.429,6.429,0,0,1-2.743-.559,6.255,6.255,0,0,1-2.077-1.518A6.793,6.793,0,0,1,805,300.463a7.8,7.8,0,0,1-.466-2.676A6.945,6.945,0,0,1,804.976,295.3Z" transform="translate(-797.2 -274.1)"/>
        <path id="Path_49679" data-name="Path 49679" d="M1059.813,374.435V348.192h-7.643v2.823h-.32l-.04-.067a7.851,7.851,0,0,0-.985-1.238,7,7,0,0,0-1.545-1.172,9.335,9.335,0,0,0-2.21-.892,10.578,10.578,0,0,0-2.876-.346,13.388,13.388,0,0,0-5.033.972,12.5,12.5,0,0,0-4.181,2.783,14.059,14.059,0,0,0-2.889,4.42,15.121,15.121,0,0,0-1.092,5.832,14.936,14.936,0,0,0,.905,5.379,13.96,13.96,0,0,0,2.583,4.474,12.212,12.212,0,0,0,4.141,3.076,13.092,13.092,0,0,0,5.579,1.132,5.519,5.519,0,0,0,2.29-.213,9.7,9.7,0,0,0,2.184-.679,7.377,7.377,0,0,0,1.824-1.172,5.764,5.764,0,0,0,1.3-1.638l.04-.08h.333v2.876h7.643Zm-7.989-10.958a6.792,6.792,0,0,1-1.145,2.277,6.346,6.346,0,0,1-5.312,2.463,6.324,6.324,0,0,1-3.129-.706,6.724,6.724,0,0,1-2.077-1.758,7.015,7.015,0,0,1-1.172-2.224,7.293,7.293,0,0,1-.359-2.144,8.6,8.6,0,0,1,.386-2.383,6.878,6.878,0,0,1,1.225-2.25,6.665,6.665,0,0,1,2.077-1.691,6.433,6.433,0,0,1,3.009-.666,6.861,6.861,0,0,1,3.009.612,6.416,6.416,0,0,1,3.422,3.835,7.276,7.276,0,0,1,.067,4.633Z" transform="translate(-999.871 -337.554)"/>
        <path id="Path_49680" data-name="Path 49680" d="M1288.527,354l-5.059,15.392h-.32l-.027-.093-5.272-15.3H1269.7l9.8,25.058-2.969,6.577h8.082L1296.622,354Z" transform="translate(-1206.789 -343.362)"/>
        <path id="Path_49681" data-name="Path 49681" d="M1497.213,374.435V348.192h-7.642v2.823h-.32l-.04-.067a7.852,7.852,0,0,0-.985-1.238,7,7,0,0,0-1.544-1.172,9.335,9.335,0,0,0-2.21-.892,10.578,10.578,0,0,0-2.876-.346,13.387,13.387,0,0,0-5.033.972,12.5,12.5,0,0,0-4.181,2.783,14.053,14.053,0,0,0-2.889,4.42,15.119,15.119,0,0,0-1.092,5.832,14.933,14.933,0,0,0,.905,5.379,13.96,13.96,0,0,0,2.583,4.474,12.21,12.21,0,0,0,4.141,3.076,13.092,13.092,0,0,0,5.579,1.132,5.519,5.519,0,0,0,2.29-.213,9.7,9.7,0,0,0,2.184-.679,7.374,7.374,0,0,0,1.824-1.172,5.763,5.763,0,0,0,1.3-1.638l.04-.08h.333v2.876h7.643Zm-7.975-10.958a6.794,6.794,0,0,1-1.145,2.277,6.347,6.347,0,0,1-5.312,2.463,6.324,6.324,0,0,1-3.129-.706,6.726,6.726,0,0,1-2.077-1.758,7.012,7.012,0,0,1-1.172-2.224,7.293,7.293,0,0,1-.359-2.144,8.6,8.6,0,0,1,.386-2.383,6.879,6.879,0,0,1,1.225-2.25,6.665,6.665,0,0,1,2.077-1.691,6.433,6.433,0,0,1,3.009-.666,6.861,6.861,0,0,1,3.009.612,6.416,6.416,0,0,1,3.422,3.835,7.277,7.277,0,0,1,.067,4.633Z" transform="translate(-1379.033 -337.554)"/>
      </g>
    </g>
    <g id="Group_8431" data-name="Group 8431" transform="translate(1 -4.822)">
      <path id="Path_54297" data-name="Path 54297" d="M7.9-2.272H3.248L2.448,0H.544L4.528-11.136H6.64L10.624,0H8.7ZM7.392-3.76,5.584-8.928,3.76-3.76Zm4.352-.656A5,5,0,0,1,12.3-6.808,3.926,3.926,0,0,1,13.824-8.4a4.42,4.42,0,0,1,2.24-.56,4.4,4.4,0,0,1,2.648.76,3.741,3.741,0,0,1,1.416,2.168H18.16a2.081,2.081,0,0,0-.768-1.024,2.268,2.268,0,0,0-1.328-.368,2.208,2.208,0,0,0-1.784.792,3.351,3.351,0,0,0-.664,2.216,3.384,3.384,0,0,0,.664,2.224,2.2,2.2,0,0,0,1.784.8,2.024,2.024,0,0,0,2.1-1.392h1.968a3.94,3.94,0,0,1-1.44,2.136,4.25,4.25,0,0,1-2.624.792,4.371,4.371,0,0,1-2.24-.568,3.981,3.981,0,0,1-1.528-1.6A5,5,0,0,1,11.744-4.416Zm9.6,0A5,5,0,0,1,21.9-6.808,3.926,3.926,0,0,1,23.424-8.4a4.42,4.42,0,0,1,2.24-.56,4.4,4.4,0,0,1,2.648.76,3.741,3.741,0,0,1,1.416,2.168H27.76a2.081,2.081,0,0,0-.768-1.024,2.268,2.268,0,0,0-1.328-.368,2.208,2.208,0,0,0-1.784.792,3.351,3.351,0,0,0-.664,2.216,3.384,3.384,0,0,0,.664,2.224,2.2,2.2,0,0,0,1.784.8,2.024,2.024,0,0,0,2.1-1.392h1.968a3.94,3.94,0,0,1-1.44,2.136,4.25,4.25,0,0,1-2.624.792,4.371,4.371,0,0,1-2.24-.568,3.981,3.981,0,0,1-1.528-1.6A5,5,0,0,1,21.344-4.416Zm18.288-.208a5.7,5.7,0,0,1-.064.9H32.832a2.446,2.446,0,0,0,.784,1.7,2.475,2.475,0,0,0,1.728.64,2.134,2.134,0,0,0,2.08-1.232h1.968A3.971,3.971,0,0,1,37.944-.632a4.249,4.249,0,0,1-2.6.776A4.5,4.5,0,0,1,33.08-.424a4.041,4.041,0,0,1-1.568-1.6,4.881,4.881,0,0,1-.568-2.392A5,5,0,0,1,31.5-6.808,3.882,3.882,0,0,1,33.048-8.4a4.619,4.619,0,0,1,2.3-.56,4.49,4.49,0,0,1,2.224.544,3.844,3.844,0,0,1,1.52,1.528A4.6,4.6,0,0,1,39.632-4.624Zm-1.9-.576a2.076,2.076,0,0,0-.72-1.616,2.574,2.574,0,0,0-1.744-.608,2.343,2.343,0,0,0-1.616.6,2.507,2.507,0,0,0-.8,1.624Zm5.52-6.64V0H41.424V-11.84Zm10.48,7.216a5.7,5.7,0,0,1-.064.9H46.928a2.446,2.446,0,0,0,.784,1.7,2.475,2.475,0,0,0,1.728.64,2.134,2.134,0,0,0,2.08-1.232h1.968A3.971,3.971,0,0,1,52.04-.632a4.249,4.249,0,0,1-2.6.776,4.5,4.5,0,0,1-2.264-.568,4.041,4.041,0,0,1-1.568-1.6,4.881,4.881,0,0,1-.568-2.392,5,5,0,0,1,.552-2.392A3.882,3.882,0,0,1,47.144-8.4a4.619,4.619,0,0,1,2.3-.56,4.49,4.49,0,0,1,2.224.544,3.844,3.844,0,0,1,1.52,1.528A4.6,4.6,0,0,1,53.728-4.624Zm-1.9-.576a2.076,2.076,0,0,0-.72-1.616,2.574,2.574,0,0,0-1.744-.608,2.343,2.343,0,0,0-1.616.6,2.507,2.507,0,0,0-.8,1.624Zm5.52-2.336a2.865,2.865,0,0,1,1.064-1.048,3.147,3.147,0,0,1,1.576-.376v1.888H59.52a2.221,2.221,0,0,0-1.624.544,2.6,2.6,0,0,0-.552,1.888V0H55.52V-8.816h1.824Zm3.712,3.088A4.879,4.879,0,0,1,61.608-6.8a4.046,4.046,0,0,1,1.5-1.592,4.029,4.029,0,0,1,2.1-.568,3.849,3.849,0,0,1,1.816.408,3.685,3.685,0,0,1,1.24,1.016v-1.28h1.84V0h-1.84V-1.312a3.622,3.622,0,0,1-1.264,1.04,3.9,3.9,0,0,1-1.824.416A3.877,3.877,0,0,1,63.1-.44a4.142,4.142,0,0,1-1.5-1.632A5.021,5.021,0,0,1,61.056-4.448Zm7.216.032A3.192,3.192,0,0,0,67.9-6a2.639,2.639,0,0,0-.984-1.024A2.574,2.574,0,0,0,65.6-7.376a2.621,2.621,0,0,0-1.312.344A2.594,2.594,0,0,0,63.3-6.024a3.147,3.147,0,0,0-.376,1.576,3.284,3.284,0,0,0,.376,1.6A2.653,2.653,0,0,0,64.3-1.8a2.544,2.544,0,0,0,1.3.36,2.574,2.574,0,0,0,1.312-.352A2.626,2.626,0,0,0,67.9-2.824,3.238,3.238,0,0,0,68.272-4.416ZM74.64-7.328v4.88a.937.937,0,0,0,.232.712,1.154,1.154,0,0,0,.792.216h1.12V0h-1.44a2.776,2.776,0,0,1-1.888-.576A2.374,2.374,0,0,1,72.8-2.448v-4.88H71.76V-8.816H72.8v-2.192h1.84v2.192h2.144v1.488Zm4.752-2.656a1.13,1.13,0,0,1-.832-.336,1.13,1.13,0,0,1-.336-.832,1.13,1.13,0,0,1,.336-.832,1.13,1.13,0,0,1,.832-.336,1.111,1.111,0,0,1,.816.336,1.13,1.13,0,0,1,.336.832,1.13,1.13,0,0,1-.336.832A1.111,1.111,0,0,1,79.392-9.984Zm.9,1.168V0H78.464V-8.816Zm6.848-.144A3.953,3.953,0,0,1,89-8.528a3.072,3.072,0,0,1,1.288,1.28A4.211,4.211,0,0,1,90.752-5.2V0H88.944V-4.928a2.559,2.559,0,0,0-.592-1.816,2.107,2.107,0,0,0-1.616-.632,2.133,2.133,0,0,0-1.624.632,2.537,2.537,0,0,0-.6,1.816V0H82.688V-8.816h1.824v1.008a3.019,3.019,0,0,1,1.144-.848A3.657,3.657,0,0,1,87.136-8.96Zm9.488,0a3.909,3.909,0,0,1,1.816.408,3.488,3.488,0,0,1,1.24,1.016v-1.28h1.84V.144a4.5,4.5,0,0,1-.512,2.168,3.7,3.7,0,0,1-1.48,1.5,4.647,4.647,0,0,1-2.312.544,5.017,5.017,0,0,1-2.976-.84A3.1,3.1,0,0,1,92.9,1.232H94.7a1.963,1.963,0,0,0,.888,1.112,3.007,3.007,0,0,0,1.624.424A2.428,2.428,0,0,0,99,2.1,2.625,2.625,0,0,0,99.68.144V-1.328A3.719,3.719,0,0,1,98.424-.28a3.754,3.754,0,0,1-1.8.424,3.945,3.945,0,0,1-2.1-.584,4.122,4.122,0,0,1-1.5-1.632,5.021,5.021,0,0,1-.552-2.376A4.879,4.879,0,0,1,93.016-6.8a4.046,4.046,0,0,1,1.5-1.592A4.029,4.029,0,0,1,96.624-8.96ZM99.68-4.416A3.192,3.192,0,0,0,99.3-6a2.639,2.639,0,0,0-.984-1.024,2.574,2.574,0,0,0-1.312-.352,2.621,2.621,0,0,0-1.312.344,2.594,2.594,0,0,0-.984,1.008,3.147,3.147,0,0,0-.376,1.576,3.284,3.284,0,0,0,.376,1.6A2.653,2.653,0,0,0,95.7-1.8a2.544,2.544,0,0,0,1.3.36,2.574,2.574,0,0,0,1.312-.352A2.626,2.626,0,0,0,99.3-2.824,3.238,3.238,0,0,0,99.68-4.416ZM3.024,9.88V21H1.2V9.88Zm6.848,2.16a3.953,3.953,0,0,1,1.864.432,3.072,3.072,0,0,1,1.288,1.28,4.211,4.211,0,0,1,.464,2.048V21H11.68V16.072a2.559,2.559,0,0,0-.592-1.816,2.107,2.107,0,0,0-1.616-.632,2.133,2.133,0,0,0-1.624.632,2.537,2.537,0,0,0-.6,1.816V21H5.424V12.184H7.248v1.008a3.019,3.019,0,0,1,1.144-.848A3.657,3.657,0,0,1,9.872,12.04Zm8.064,1.632v4.88a.937.937,0,0,0,.232.712,1.154,1.154,0,0,0,.792.216h1.12V21H18.64a2.776,2.776,0,0,1-1.888-.576,2.374,2.374,0,0,1-.656-1.872v-4.88h-1.04V12.184H16.1V9.992h1.84v2.192H20.08v1.488Zm11.9,2.7a5.7,5.7,0,0,1-.064.9H23.04a2.446,2.446,0,0,0,.784,1.7,2.475,2.475,0,0,0,1.728.64,2.134,2.134,0,0,0,2.08-1.232H29.6a3.971,3.971,0,0,1-1.448,1.992,4.249,4.249,0,0,1-2.6.776,4.5,4.5,0,0,1-2.264-.568,4.041,4.041,0,0,1-1.568-1.6,4.881,4.881,0,0,1-.568-2.392,5,5,0,0,1,.552-2.392A3.882,3.882,0,0,1,23.256,12.6a4.619,4.619,0,0,1,2.3-.56,4.49,4.49,0,0,1,2.224.544,3.844,3.844,0,0,1,1.52,1.528A4.6,4.6,0,0,1,29.84,16.376Zm-1.9-.576a2.076,2.076,0,0,0-.72-1.616,2.574,2.574,0,0,0-1.744-.608,2.343,2.343,0,0,0-1.616.6,2.507,2.507,0,0,0-.8,1.624Zm5.52-6.64V21H31.632V9.16Zm4.224,0V21H35.856V9.16Zm3.328,1.856a1.168,1.168,0,1,1,0-2.336,1.111,1.111,0,0,1,.816.336,1.2,1.2,0,0,1,0,1.664A1.111,1.111,0,0,1,41.008,11.016Zm.9,1.168V21H40.08V12.184Zm5.952-.144a3.909,3.909,0,0,1,1.816.408,3.488,3.488,0,0,1,1.24,1.016v-1.28h1.84v8.96a4.5,4.5,0,0,1-.512,2.168,3.7,3.7,0,0,1-1.48,1.5,4.647,4.647,0,0,1-2.312.544,5.017,5.017,0,0,1-2.976-.84,3.1,3.1,0,0,1-1.344-2.28h1.808a1.963,1.963,0,0,0,.888,1.112,3.007,3.007,0,0,0,1.624.424,2.428,2.428,0,0,0,1.784-.672,2.625,2.625,0,0,0,.68-1.952V19.672a3.79,3.79,0,0,1-3.056,1.472,3.945,3.945,0,0,1-2.1-.584,4.122,4.122,0,0,1-1.5-1.632,5.021,5.021,0,0,1-.552-2.376,4.879,4.879,0,0,1,.552-2.352,4.022,4.022,0,0,1,3.608-2.16Zm3.056,4.544A3.192,3.192,0,0,0,50.536,15a2.639,2.639,0,0,0-.984-1.024,2.574,2.574,0,0,0-1.312-.352,2.62,2.62,0,0,0-1.312.344,2.594,2.594,0,0,0-.984,1.008,3.147,3.147,0,0,0-.376,1.576,3.284,3.284,0,0,0,.376,1.6,2.653,2.653,0,0,0,.992,1.048,2.544,2.544,0,0,0,1.3.36,2.574,2.574,0,0,0,1.312-.352,2.626,2.626,0,0,0,.984-1.032A3.238,3.238,0,0,0,50.912,16.584Zm12.32-.208a5.7,5.7,0,0,1-.064.9H56.432a2.446,2.446,0,0,0,.784,1.7,2.475,2.475,0,0,0,1.728.64,2.134,2.134,0,0,0,2.08-1.232h1.968a3.971,3.971,0,0,1-1.448,1.992,4.249,4.249,0,0,1-2.6.776,4.5,4.5,0,0,1-2.264-.568,4.041,4.041,0,0,1-1.568-1.6,4.881,4.881,0,0,1-.568-2.392,5,5,0,0,1,.552-2.392A3.882,3.882,0,0,1,56.648,12.6a4.619,4.619,0,0,1,2.3-.56,4.49,4.49,0,0,1,2.224.544,3.844,3.844,0,0,1,1.52,1.528A4.6,4.6,0,0,1,63.232,16.376Zm-1.9-.576a2.076,2.076,0,0,0-.72-1.616,2.574,2.574,0,0,0-1.744-.608,2.343,2.343,0,0,0-1.616.6,2.507,2.507,0,0,0-.8,1.624Zm8.144-3.76a3.953,3.953,0,0,1,1.864.432,3.072,3.072,0,0,1,1.288,1.28,4.211,4.211,0,0,1,.464,2.048V21H71.28V16.072a2.559,2.559,0,0,0-.592-1.816,2.107,2.107,0,0,0-1.616-.632,2.133,2.133,0,0,0-1.624.632,2.537,2.537,0,0,0-.6,1.816V21H65.024V12.184h1.824v1.008a3.019,3.019,0,0,1,1.144-.848A3.657,3.657,0,0,1,69.472,12.04Zm8.064,1.632v4.88a.937.937,0,0,0,.232.712,1.154,1.154,0,0,0,.792.216h1.12V21H78.24a2.776,2.776,0,0,1-1.888-.576,2.374,2.374,0,0,1-.656-1.872v-4.88h-1.04V12.184H75.7V9.992h1.84v2.192H79.68v1.488ZM.592,36.416a5.679,5.679,0,0,1,.76-2.928,5.411,5.411,0,0,1,2.064-2.024,5.76,5.76,0,0,1,2.856-.728,5.8,5.8,0,0,1,3.16.872A4.965,4.965,0,0,1,11.44,34.08H9.248a2.939,2.939,0,0,0-1.2-1.312,3.561,3.561,0,0,0-1.776-.432,3.881,3.881,0,0,0-1.968.5,3.452,3.452,0,0,0-1.352,1.424,5.024,5.024,0,0,0,0,4.32A3.506,3.506,0,0,0,4.3,40.008a3.833,3.833,0,0,0,1.968.5,3.561,3.561,0,0,0,1.776-.432,2.939,2.939,0,0,0,1.2-1.312H11.44a4.923,4.923,0,0,1-2.008,2.464,5.842,5.842,0,0,1-3.16.864,5.747,5.747,0,0,1-2.864-.728,5.428,5.428,0,0,1-2.056-2.024A5.679,5.679,0,0,1,.592,36.416Zm16.8,5.728a4.515,4.515,0,0,1-2.256-.568,4.08,4.08,0,0,1-1.584-1.6,4.826,4.826,0,0,1-.576-2.392,4.734,4.734,0,0,1,.592-2.384,4.089,4.089,0,0,1,1.616-1.6,4.954,4.954,0,0,1,4.576,0,4.089,4.089,0,0,1,1.616,1.6,4.734,4.734,0,0,1,.592,2.384,4.635,4.635,0,0,1-.608,2.384A4.21,4.21,0,0,1,19.7,41.576,4.773,4.773,0,0,1,17.392,42.144Zm0-1.584a2.714,2.714,0,0,0,1.32-.336,2.56,2.56,0,0,0,1-1.008,3.241,3.241,0,0,0,.384-1.632,3.308,3.308,0,0,0-.368-1.624,2.484,2.484,0,0,0-.976-1,2.669,2.669,0,0,0-1.312-.336,2.625,2.625,0,0,0-1.3.336,2.4,2.4,0,0,0-.952,1,3.432,3.432,0,0,0-.352,1.624,3.093,3.093,0,0,0,.728,2.2A2.406,2.406,0,0,0,17.392,40.56Zm17.056-7.52a3.953,3.953,0,0,1,1.864.432,3.121,3.121,0,0,1,1.3,1.28A4.152,4.152,0,0,1,38.08,36.8V42H36.272V37.072a2.559,2.559,0,0,0-.592-1.816,2.107,2.107,0,0,0-1.616-.632,2.133,2.133,0,0,0-1.624.632,2.537,2.537,0,0,0-.6,1.816V42H30.032V37.072a2.559,2.559,0,0,0-.592-1.816,2.107,2.107,0,0,0-1.616-.632,2.133,2.133,0,0,0-1.624.632,2.537,2.537,0,0,0-.6,1.816V42H23.776V33.184H25.6v1.008a3.033,3.033,0,0,1,1.136-.848,3.6,3.6,0,0,1,1.472-.3,3.919,3.919,0,0,1,1.888.448,3.062,3.062,0,0,1,1.28,1.3,2.957,2.957,0,0,1,1.248-1.272A3.691,3.691,0,0,1,34.448,33.04Zm7.776,1.44a3.707,3.707,0,0,1,1.264-1.024A3.86,3.86,0,0,1,45.3,33.04a4,4,0,0,1,3.6,2.16,4.937,4.937,0,0,1,.544,2.352,5.081,5.081,0,0,1-.544,2.376,4.065,4.065,0,0,1-1.5,1.632,3.945,3.945,0,0,1-2.1.584,3.825,3.825,0,0,1-1.792-.408,4.016,4.016,0,0,1-1.28-1.016v5.472H40.4V33.184h1.824Zm5.36,3.072a3.147,3.147,0,0,0-.376-1.576,2.577,2.577,0,0,0-.992-1.008,2.665,2.665,0,0,0-1.32-.344,2.588,2.588,0,0,0-1.3.352A2.621,2.621,0,0,0,42.6,36a3.192,3.192,0,0,0-.376,1.584,3.238,3.238,0,0,0,.376,1.592,2.6,2.6,0,0,0,2.3,1.384,2.573,2.573,0,0,0,1.32-.36,2.653,2.653,0,0,0,.992-1.048A3.284,3.284,0,0,0,47.584,37.552Zm11.648-4.368V42H57.408V40.96a2.952,2.952,0,0,1-1.128.856,3.577,3.577,0,0,1-1.48.312,3.953,3.953,0,0,1-1.864-.432,3.121,3.121,0,0,1-1.3-1.28,4.152,4.152,0,0,1-.472-2.048V33.184h1.808V38.1a2.559,2.559,0,0,0,.592,1.816,2.107,2.107,0,0,0,1.616.632,2.133,2.133,0,0,0,1.624-.632,2.537,2.537,0,0,0,.6-1.816V33.184Zm4.528,1.488v4.88a.937.937,0,0,0,.232.712,1.153,1.153,0,0,0,.792.216H65.9V42h-1.44a2.776,2.776,0,0,1-1.888-.576,2.374,2.374,0,0,1-.656-1.872v-4.88H60.88V33.184h1.04V30.992h1.84v2.192H65.9v1.488Zm11.9,2.7a5.7,5.7,0,0,1-.064.9H68.864a2.446,2.446,0,0,0,.784,1.7,2.475,2.475,0,0,0,1.728.64,2.134,2.134,0,0,0,2.08-1.232h1.968a3.971,3.971,0,0,1-1.448,1.992,4.249,4.249,0,0,1-2.6.776,4.5,4.5,0,0,1-2.264-.568,4.041,4.041,0,0,1-1.568-1.6,4.881,4.881,0,0,1-.568-2.392,5,5,0,0,1,.552-2.392A3.882,3.882,0,0,1,69.08,33.6a4.619,4.619,0,0,1,2.3-.56,4.49,4.49,0,0,1,2.224.544,3.844,3.844,0,0,1,1.52,1.528A4.6,4.6,0,0,1,75.664,37.376Zm-1.9-.576a2.076,2.076,0,0,0-.72-1.616,2.574,2.574,0,0,0-1.744-.608,2.343,2.343,0,0,0-1.616.6,2.507,2.507,0,0,0-.8,1.624Z" transform="translate(578.388 53)" fill="#33394a"/>
      <line id="Line_35" data-name="Line 35" y2="57" transform="translate(556.5 39.5)" fill="none" stroke="#33394a" stroke-width="1.8"/>
    </g>
  </g>
</svg>